%TF.GenerationSoftware,KiCad,Pcbnew,10.0.4*%
%TF.CreationDate,2026-07-16T11:03:37+02:00*%
%TF.ProjectId,PCB,5043422e-6b69-4636-9164-5f7063625858,rev?*%
%TF.SameCoordinates,Original*%
%TF.FileFunction,Copper,L2,Bot*%
%TF.FilePolarity,Positive*%
%FSLAX46Y46*%
G04 Gerber Fmt 4.6, Leading zero omitted, Abs format (unit mm)*
G04 Created by KiCad (PCBNEW 10.0.4) date 2026-07-16 11:03:37*
%MOMM*%
%LPD*%
G01*
G04 APERTURE LIST*
G04 Aperture macros list*
%AMRoundRect*
0 Rectangle with rounded corners*
0 $1 Rounding radius*
0 $2 $3 $4 $5 $6 $7 $8 $9 X,Y pos of 4 corners*
0 Add a 4 corners polygon primitive as box body*
4,1,4,$2,$3,$4,$5,$6,$7,$8,$9,$2,$3,0*
0 Add four circle primitives for the rounded corners*
1,1,$1+$1,$2,$3*
1,1,$1+$1,$4,$5*
1,1,$1+$1,$6,$7*
1,1,$1+$1,$8,$9*
0 Add four rect primitives between the rounded corners*
20,1,$1+$1,$2,$3,$4,$5,0*
20,1,$1+$1,$4,$5,$6,$7,0*
20,1,$1+$1,$6,$7,$8,$9,0*
20,1,$1+$1,$8,$9,$2,$3,0*%
G04 Aperture macros list end*
%TA.AperFunction,ComponentPad*%
%ADD10RoundRect,0.250000X0.725000X-0.600000X0.725000X0.600000X-0.725000X0.600000X-0.725000X-0.600000X0*%
%TD*%
%TA.AperFunction,ComponentPad*%
%ADD11O,1.950000X1.700000*%
%TD*%
%TA.AperFunction,ComponentPad*%
%ADD12R,2.000000X1.200000*%
%TD*%
%TA.AperFunction,ComponentPad*%
%ADD13O,2.000000X1.200000*%
%TD*%
%TA.AperFunction,ComponentPad*%
%ADD14RoundRect,0.250000X-1.050000X-1.050000X1.050000X-1.050000X1.050000X1.050000X-1.050000X1.050000X0*%
%TD*%
%TA.AperFunction,ComponentPad*%
%ADD15C,2.600000*%
%TD*%
%TA.AperFunction,ComponentPad*%
%ADD16RoundRect,0.250000X-0.600000X-0.725000X0.600000X-0.725000X0.600000X0.725000X-0.600000X0.725000X0*%
%TD*%
%TA.AperFunction,ComponentPad*%
%ADD17O,1.700000X1.950000*%
%TD*%
%TA.AperFunction,ComponentPad*%
%ADD18R,1.524000X1.524000*%
%TD*%
%TA.AperFunction,ViaPad*%
%ADD19C,0.600000*%
%TD*%
%TA.AperFunction,Conductor*%
%ADD20C,0.350000*%
%TD*%
%TA.AperFunction,Conductor*%
%ADD21C,0.300000*%
%TD*%
G04 APERTURE END LIST*
D10*
%TO.P,J1,1,Pin_1_1*%
%TO.N,Net-(J1-Pin_1)*%
X91055000Y-44250000D03*
D11*
%TO.P,J1,2,Pin_2_2*%
%TO.N,Net-(J1-Pin_2)*%
X91055000Y-41750000D03*
%TO.P,J1,3,Pin_3_3*%
%TO.N,Net-(J1-Pin_3)*%
X91055000Y-39250000D03*
%TO.P,J1,4,Pin_4_4*%
%TO.N,Net-(J1-Pin_4)*%
X91055000Y-36750000D03*
%TD*%
D12*
%TO.P,U1,1,3V3_1*%
%TO.N,unconnected-(U1-3V3-Pad1)*%
X72500000Y-79980000D03*
D13*
%TO.P,U1,2,CHIP_PU_2*%
%TO.N,unconnected-(U1-CHIP_PU-Pad2)*%
X72500000Y-77440000D03*
%TO.P,U1,3,SENSOR_VP/GPIO36/ADC1_CH0_3*%
%TO.N,unconnected-(U1-SENSOR_VP{slash}GPIO36{slash}ADC1_CH0-Pad3)*%
X72500000Y-74900000D03*
%TO.P,U1,4,SENSOR_VN/GPIO39/ADC1_CH3_4*%
%TO.N,unconnected-(U1-SENSOR_VN{slash}GPIO39{slash}ADC1_CH3-Pad4)*%
X72500000Y-72360000D03*
%TO.P,U1,5,VDET_1/GPIO34/ADC1_CH6_5*%
%TO.N,unconnected-(U1-VDET_1{slash}GPIO34{slash}ADC1_CH6-Pad5)*%
X72500000Y-69820000D03*
%TO.P,U1,6,VDET_2/GPIO35/ADC1_CH7_6*%
%TO.N,unconnected-(U1-VDET_2{slash}GPIO35{slash}ADC1_CH7-Pad6)*%
X72500000Y-67280000D03*
%TO.P,U1,7,32K_XP/GPIO32/ADC1_CH4_7*%
%TO.N,Net-(Q4-G)*%
X72500000Y-64740000D03*
%TO.P,U1,8,32K_XN/GPIO33/ADC1_CH5_8*%
%TO.N,Net-(J4-Pin_4)*%
X72500000Y-62200000D03*
%TO.P,U1,9,DAC_1/ADC2_CH8/GPIO25_9*%
%TO.N,Net-(Q3-G)*%
X72500000Y-59660000D03*
%TO.P,U1,10,DAC_2/ADC2_CH9/GPIO26_10*%
%TO.N,Net-(J3-Pin_4)*%
X72500000Y-57120000D03*
%TO.P,U1,11,ADC2_CH7/GPIO27_11*%
%TO.N,Net-(Q2-G)*%
X72500000Y-54580000D03*
%TO.P,U1,12,MTMS/GPIO14/ADC2_CH6_12*%
%TO.N,Net-(J2-Pin_4)*%
X72500000Y-52040000D03*
%TO.P,U1,13,MTDI/GPIO12/ADC2_CH5_13*%
%TO.N,Net-(Q1-G)*%
X72500000Y-49500000D03*
%TO.P,U1,14,GND_14*%
%TO.N,Net-(J1-Pin_1)*%
X72500000Y-46960000D03*
%TO.P,U1,15,MTCK/GPIO13/ADC2_CH4_15*%
%TO.N,Net-(J1-Pin_4)*%
X72500000Y-44420000D03*
%TO.P,U1,16,SD_DATA2/GPIO9_16*%
%TO.N,unconnected-(U1-SD_DATA2{slash}GPIO9-Pad16)*%
X72500000Y-41880000D03*
%TO.P,U1,17,SD_DATA3/GPIO10_17*%
%TO.N,unconnected-(U1-SD_DATA3{slash}GPIO10-Pad17)*%
X72500000Y-39340000D03*
%TO.P,U1,18,CMD_18*%
%TO.N,unconnected-(U1-CMD-Pad18)*%
X72500000Y-36800000D03*
%TO.P,U1,19,5V_19*%
%TO.N,Net-(J5-Pin_3)*%
X72500000Y-34260000D03*
%TO.P,U1,20,SD_CLK/GPIO6_20*%
%TO.N,unconnected-(U1-SD_CLK{slash}GPIO6-Pad20)*%
X47103680Y-34262720D03*
%TO.P,U1,21,SD_DATA0/GPIO7_21*%
%TO.N,unconnected-(U1-SD_DATA0{slash}GPIO7-Pad21)*%
X47103680Y-36802720D03*
%TO.P,U1,22,SD_DATA1/GPIO8_22*%
%TO.N,unconnected-(U1-SD_DATA1{slash}GPIO8-Pad22)*%
X47100000Y-39340000D03*
%TO.P,U1,23,MTDO/GPIO15/ADC2_CH3_23*%
%TO.N,unconnected-(U1-MTDO{slash}GPIO15{slash}ADC2_CH3-Pad23)*%
X47100000Y-41880000D03*
%TO.P,U1,24,ADC2_CH2/GPIO2_24*%
%TO.N,unconnected-(U1-ADC2_CH2{slash}GPIO2-Pad24)*%
X47100000Y-44420000D03*
%TO.P,U1,25,GPIO0/BOOT/ADC2_CH1_25*%
%TO.N,unconnected-(U1-GPIO0{slash}BOOT{slash}ADC2_CH1-Pad25)*%
X47100000Y-46960000D03*
%TO.P,U1,26,ADC2_CH0/GPIO4_26*%
%TO.N,Net-(J5-Pin_2)*%
X47100000Y-49500000D03*
%TO.P,U1,27,GPIO16_27*%
%TO.N,unconnected-(U1-GPIO16-Pad27)*%
X47100000Y-52040000D03*
%TO.P,U1,28,GPIO17_28*%
%TO.N,unconnected-(U1-GPIO17-Pad28)*%
X47100000Y-54580000D03*
%TO.P,U1,29,GPIO5_29*%
%TO.N,unconnected-(U1-GPIO5-Pad29)*%
X47100000Y-57120000D03*
%TO.P,U1,30,GPIO18_30*%
%TO.N,Net-(J6-Pin_7)*%
X47100000Y-59660000D03*
%TO.P,U1,31,GPIO19_31*%
%TO.N,Net-(J6-Pin_6)*%
X47100000Y-62200000D03*
%TO.P,U1,32,GND_32*%
%TO.N,Net-(J1-Pin_1)*%
X47100000Y-64740000D03*
%TO.P,U1,33,GPIO21_33*%
%TO.N,Net-(J6-Pin_5)*%
X47100000Y-67280000D03*
%TO.P,U1,34,U0RXD/GPIO3_34*%
%TO.N,unconnected-(U1-U0RXD{slash}GPIO3-Pad34)*%
X47100000Y-69820000D03*
%TO.P,U1,35,U0TXD/GPIO1_35*%
%TO.N,unconnected-(U1-U0TXD{slash}GPIO1-Pad35)*%
X47100000Y-72360000D03*
%TO.P,U1,36,GPIO22_36*%
%TO.N,Net-(J6-Pin_4)*%
X47100000Y-74900000D03*
%TO.P,U1,37,GPIO23_37*%
%TO.N,Net-(J6-Pin_3)*%
X47100000Y-77440000D03*
%TO.P,U1,38,GND_38*%
%TO.N,Net-(J1-Pin_1)*%
X47100000Y-79980000D03*
%TD*%
D10*
%TO.P,J5,1,Pin_1_1*%
%TO.N,Net-(J1-Pin_1)*%
X91055000Y-103500000D03*
D11*
%TO.P,J5,2,Pin_2_2*%
%TO.N,Net-(J5-Pin_2)*%
X91055000Y-101000000D03*
%TO.P,J5,3,Pin_3_3*%
%TO.N,Net-(J5-Pin_3)*%
X91055000Y-98500000D03*
%TD*%
D10*
%TO.P,J4,1,Pin_1_1*%
%TO.N,Net-(J1-Pin_1)*%
X91150000Y-89750000D03*
D11*
%TO.P,J4,2,Pin_2_2*%
%TO.N,Net-(J4-Pin_2)*%
X91150000Y-87250000D03*
%TO.P,J4,3,Pin_3_3*%
%TO.N,Net-(J1-Pin_3)*%
X91150000Y-84750000D03*
%TO.P,J4,4,Pin_4_4*%
%TO.N,Net-(J4-Pin_4)*%
X91150000Y-82250000D03*
%TD*%
D14*
%TO.P,J7,1,Pin_1_1*%
%TO.N,Net-(J1-Pin_1)*%
X51500000Y-120000000D03*
D15*
%TO.P,J7,2,Pin_2_2*%
%TO.N,Net-(J5-Pin_3)*%
X56500000Y-120000000D03*
%TD*%
D16*
%TO.P,J6,1,Pin_1_1*%
%TO.N,Net-(J1-Pin_1)*%
X70500000Y-119500000D03*
D17*
%TO.P,J6,2,Pin_2_2*%
%TO.N,Net-(J5-Pin_3)*%
X73000000Y-119500000D03*
%TO.P,J6,3,Pin_3_3*%
%TO.N,Net-(J6-Pin_3)*%
X75500000Y-119500000D03*
%TO.P,J6,4,Pin_4_4*%
%TO.N,Net-(J6-Pin_4)*%
X78000000Y-119500000D03*
%TO.P,J6,5,Pin_5_5*%
%TO.N,Net-(J6-Pin_5)*%
X80500000Y-119500000D03*
%TO.P,J6,6,Pin_6_6*%
%TO.N,Net-(J6-Pin_6)*%
X83000000Y-119500000D03*
%TO.P,J6,7,Pin_7_7*%
%TO.N,Net-(J6-Pin_7)*%
X85500000Y-119500000D03*
%TD*%
D10*
%TO.P,J2,1,Pin_1_1*%
%TO.N,Net-(J1-Pin_1)*%
X91055000Y-59250000D03*
D11*
%TO.P,J2,2,Pin_2_2*%
%TO.N,Net-(J2-Pin_2)*%
X91055000Y-56750000D03*
%TO.P,J2,3,Pin_3_3*%
%TO.N,Net-(J1-Pin_3)*%
X91055000Y-54250000D03*
%TO.P,J2,4,Pin_4_4*%
%TO.N,Net-(J2-Pin_4)*%
X91055000Y-51750000D03*
%TD*%
D18*
%TO.P,U2,1,IN+_1*%
%TO.N,Net-(J5-Pin_3)*%
X44028400Y-90974600D03*
%TO.P,U2,2,IN-_2*%
%TO.N,Net-(J1-Pin_1)*%
X44028400Y-108145000D03*
%TO.P,U2,3,OUT-_3*%
X83500000Y-108145000D03*
%TO.P,U2,4,OUT+_4*%
%TO.N,Net-(J1-Pin_3)*%
X83500000Y-91000000D03*
%TD*%
D10*
%TO.P,J3,1,Pin_1_1*%
%TO.N,Net-(J1-Pin_1)*%
X91000000Y-74500000D03*
D11*
%TO.P,J3,2,Pin_2_2*%
%TO.N,Net-(J3-Pin_2)*%
X91000000Y-72000000D03*
%TO.P,J3,3,Pin_3_3*%
%TO.N,Net-(J1-Pin_3)*%
X91000000Y-69500000D03*
%TO.P,J3,4,Pin_4_4*%
%TO.N,Net-(J3-Pin_4)*%
X91000000Y-67000000D03*
%TD*%
D19*
%TO.N,Net-(J1-Pin_1)*%
X81000000Y-75500000D03*
X81000000Y-54000000D03*
X81000000Y-64000000D03*
X80500000Y-44000000D03*
%TD*%
%TO.N,Net-(J1-Pin_1)*%
D20*
X44028400Y-108145000D02*
X70500000Y-108145000D01*
D21*
X70500000Y-119500000D02*
X70500000Y-108145000D01*
D20*
X87527500Y-107027500D02*
X87527500Y-86527500D01*
X70500000Y-108145000D02*
X83500000Y-108145000D01*
X80500000Y-44000000D02*
X80500000Y-46960000D01*
X72500000Y-46960000D02*
X78765000Y-46960000D01*
X81000000Y-75500000D02*
X86402500Y-75500000D01*
X87527500Y-86527500D02*
X86402500Y-85402500D01*
X83500000Y-108145000D02*
X86410000Y-108145000D01*
X44028400Y-108145000D02*
X47100000Y-105073400D01*
X81000000Y-54000000D02*
X85805000Y-54000000D01*
X47100000Y-79980000D02*
X44620000Y-77500000D01*
X47100000Y-105073400D02*
X47100000Y-79980000D01*
X86402500Y-85402500D02*
X86402500Y-75500000D01*
X43500000Y-68340000D02*
X47100000Y-64740000D01*
X86402500Y-64000000D02*
X86402500Y-54597500D01*
X91000000Y-90000000D02*
X86402500Y-85402500D01*
X44028400Y-108145000D02*
X44028400Y-112528400D01*
X88345000Y-46960000D02*
X91055000Y-44250000D01*
X86410000Y-108145000D02*
X87527500Y-107027500D01*
X81000000Y-64000000D02*
X86402500Y-64000000D01*
X91000000Y-74500000D02*
X86402500Y-69902500D01*
X86402500Y-75500000D02*
X86402500Y-69902500D01*
X44620000Y-77500000D02*
X43500000Y-77500000D01*
X72500000Y-46960000D02*
X80500000Y-46960000D01*
X86402500Y-54597500D02*
X91055000Y-59250000D01*
X44028400Y-112528400D02*
X51500000Y-120000000D01*
X43500000Y-77500000D02*
X43500000Y-68340000D01*
X80500000Y-46960000D02*
X88345000Y-46960000D01*
X86402500Y-69902500D02*
X86402500Y-64000000D01*
X85805000Y-54000000D02*
X86402500Y-54597500D01*
X87527500Y-107027500D02*
X91055000Y-103500000D01*
X78765000Y-46960000D02*
X85805000Y-54000000D01*
%TD*%
%TA.AperFunction,Conductor*%
%TO.N,Net-(J1-Pin_1)*%
G36*
X93442539Y-32020185D02*
G01*
X93488294Y-32072989D01*
X93499500Y-32124500D01*
X93499500Y-121875500D01*
X93479815Y-121942539D01*
X93427011Y-121988294D01*
X93375500Y-121999500D01*
X56936235Y-121999500D01*
X56869196Y-121979815D01*
X56823441Y-121927011D01*
X56813497Y-121857853D01*
X56842522Y-121794297D01*
X56901300Y-121756523D01*
X56904097Y-121755737D01*
X57079993Y-121708606D01*
X57298049Y-121618284D01*
X57502450Y-121500273D01*
X57689699Y-121356592D01*
X57856592Y-121189699D01*
X58000273Y-121002450D01*
X58118284Y-120798049D01*
X58208606Y-120579993D01*
X58269693Y-120352014D01*
X58300500Y-120118011D01*
X58300500Y-119881989D01*
X58269693Y-119647986D01*
X58208606Y-119420007D01*
X58118284Y-119201951D01*
X58118282Y-119201948D01*
X58118280Y-119201943D01*
X58070915Y-119119905D01*
X58000273Y-118997550D01*
X57861152Y-118816244D01*
X57856593Y-118810302D01*
X57856587Y-118810295D01*
X57771305Y-118725013D01*
X69150000Y-118725013D01*
X69150000Y-119250000D01*
X70095854Y-119250000D01*
X70057370Y-119316657D01*
X70025000Y-119437465D01*
X70025000Y-119562535D01*
X70057370Y-119683343D01*
X70095854Y-119750000D01*
X69150001Y-119750000D01*
X69150001Y-120274986D01*
X69160494Y-120377697D01*
X69215641Y-120544119D01*
X69215643Y-120544124D01*
X69307684Y-120693345D01*
X69431654Y-120817315D01*
X69580875Y-120909356D01*
X69580880Y-120909358D01*
X69747302Y-120964505D01*
X69747309Y-120964506D01*
X69850019Y-120974999D01*
X70249999Y-120974999D01*
X70250000Y-120974998D01*
X70250000Y-119904145D01*
X70316657Y-119942630D01*
X70437465Y-119975000D01*
X70562535Y-119975000D01*
X70683343Y-119942630D01*
X70750000Y-119904145D01*
X70750000Y-120974999D01*
X71149972Y-120974999D01*
X71149986Y-120974998D01*
X71252697Y-120964505D01*
X71419119Y-120909358D01*
X71419124Y-120909356D01*
X71568345Y-120817315D01*
X71692317Y-120693343D01*
X71787815Y-120538516D01*
X71839763Y-120491791D01*
X71908725Y-120480568D01*
X71972808Y-120508412D01*
X71981035Y-120515931D01*
X72120213Y-120655109D01*
X72292179Y-120780048D01*
X72292181Y-120780049D01*
X72292184Y-120780051D01*
X72481588Y-120876557D01*
X72683757Y-120942246D01*
X72893713Y-120975500D01*
X72893714Y-120975500D01*
X73106286Y-120975500D01*
X73106287Y-120975500D01*
X73316243Y-120942246D01*
X73518412Y-120876557D01*
X73707816Y-120780051D01*
X73729789Y-120764086D01*
X73879786Y-120655109D01*
X73879788Y-120655106D01*
X73879792Y-120655104D01*
X74030104Y-120504792D01*
X74149683Y-120340204D01*
X74205011Y-120297540D01*
X74274624Y-120291561D01*
X74336420Y-120324166D01*
X74350313Y-120340199D01*
X74452296Y-120480568D01*
X74469896Y-120504792D01*
X74620213Y-120655109D01*
X74792179Y-120780048D01*
X74792181Y-120780049D01*
X74792184Y-120780051D01*
X74981588Y-120876557D01*
X75183757Y-120942246D01*
X75393713Y-120975500D01*
X75393714Y-120975500D01*
X75606286Y-120975500D01*
X75606287Y-120975500D01*
X75816243Y-120942246D01*
X76018412Y-120876557D01*
X76207816Y-120780051D01*
X76229789Y-120764086D01*
X76379786Y-120655109D01*
X76379788Y-120655106D01*
X76379792Y-120655104D01*
X76530104Y-120504792D01*
X76649683Y-120340204D01*
X76705011Y-120297540D01*
X76774624Y-120291561D01*
X76836420Y-120324166D01*
X76850313Y-120340199D01*
X76952296Y-120480568D01*
X76969896Y-120504792D01*
X77120213Y-120655109D01*
X77292179Y-120780048D01*
X77292181Y-120780049D01*
X77292184Y-120780051D01*
X77481588Y-120876557D01*
X77683757Y-120942246D01*
X77893713Y-120975500D01*
X77893714Y-120975500D01*
X78106286Y-120975500D01*
X78106287Y-120975500D01*
X78316243Y-120942246D01*
X78518412Y-120876557D01*
X78707816Y-120780051D01*
X78729789Y-120764086D01*
X78879786Y-120655109D01*
X78879788Y-120655106D01*
X78879792Y-120655104D01*
X79030104Y-120504792D01*
X79149683Y-120340204D01*
X79205011Y-120297540D01*
X79274624Y-120291561D01*
X79336420Y-120324166D01*
X79350313Y-120340199D01*
X79452296Y-120480568D01*
X79469896Y-120504792D01*
X79620213Y-120655109D01*
X79792179Y-120780048D01*
X79792181Y-120780049D01*
X79792184Y-120780051D01*
X79981588Y-120876557D01*
X80183757Y-120942246D01*
X80393713Y-120975500D01*
X80393714Y-120975500D01*
X80606286Y-120975500D01*
X80606287Y-120975500D01*
X80816243Y-120942246D01*
X81018412Y-120876557D01*
X81207816Y-120780051D01*
X81229789Y-120764086D01*
X81379786Y-120655109D01*
X81379788Y-120655106D01*
X81379792Y-120655104D01*
X81530104Y-120504792D01*
X81649683Y-120340204D01*
X81705011Y-120297540D01*
X81774624Y-120291561D01*
X81836420Y-120324166D01*
X81850313Y-120340199D01*
X81952296Y-120480568D01*
X81969896Y-120504792D01*
X82120213Y-120655109D01*
X82292179Y-120780048D01*
X82292181Y-120780049D01*
X82292184Y-120780051D01*
X82481588Y-120876557D01*
X82683757Y-120942246D01*
X82893713Y-120975500D01*
X82893714Y-120975500D01*
X83106286Y-120975500D01*
X83106287Y-120975500D01*
X83316243Y-120942246D01*
X83518412Y-120876557D01*
X83707816Y-120780051D01*
X83729789Y-120764086D01*
X83879786Y-120655109D01*
X83879788Y-120655106D01*
X83879792Y-120655104D01*
X84030104Y-120504792D01*
X84149683Y-120340204D01*
X84205011Y-120297540D01*
X84274624Y-120291561D01*
X84336420Y-120324166D01*
X84350313Y-120340199D01*
X84452296Y-120480568D01*
X84469896Y-120504792D01*
X84620213Y-120655109D01*
X84792179Y-120780048D01*
X84792181Y-120780049D01*
X84792184Y-120780051D01*
X84981588Y-120876557D01*
X85183757Y-120942246D01*
X85393713Y-120975500D01*
X85393714Y-120975500D01*
X85606286Y-120975500D01*
X85606287Y-120975500D01*
X85816243Y-120942246D01*
X86018412Y-120876557D01*
X86207816Y-120780051D01*
X86229789Y-120764086D01*
X86379786Y-120655109D01*
X86379788Y-120655106D01*
X86379792Y-120655104D01*
X86530104Y-120504792D01*
X86530106Y-120504788D01*
X86530109Y-120504786D01*
X86655048Y-120332820D01*
X86655047Y-120332820D01*
X86655051Y-120332816D01*
X86751557Y-120143412D01*
X86817246Y-119941243D01*
X86850500Y-119731287D01*
X86850500Y-119268713D01*
X86817246Y-119058757D01*
X86751557Y-118856588D01*
X86655051Y-118667184D01*
X86655049Y-118667181D01*
X86655048Y-118667179D01*
X86530109Y-118495213D01*
X86379786Y-118344890D01*
X86207820Y-118219951D01*
X86018414Y-118123444D01*
X86018413Y-118123443D01*
X86018412Y-118123443D01*
X85816243Y-118057754D01*
X85816241Y-118057753D01*
X85816240Y-118057753D01*
X85654957Y-118032208D01*
X85606287Y-118024500D01*
X85393713Y-118024500D01*
X85345042Y-118032208D01*
X85183760Y-118057753D01*
X84981585Y-118123444D01*
X84792179Y-118219951D01*
X84620213Y-118344890D01*
X84469894Y-118495209D01*
X84469890Y-118495214D01*
X84350318Y-118659793D01*
X84294989Y-118702459D01*
X84225375Y-118708438D01*
X84163580Y-118675833D01*
X84149682Y-118659793D01*
X84030109Y-118495214D01*
X84030105Y-118495209D01*
X83879786Y-118344890D01*
X83707820Y-118219951D01*
X83518414Y-118123444D01*
X83518413Y-118123443D01*
X83518412Y-118123443D01*
X83316243Y-118057754D01*
X83316241Y-118057753D01*
X83316240Y-118057753D01*
X83154957Y-118032208D01*
X83106287Y-118024500D01*
X82893713Y-118024500D01*
X82845042Y-118032208D01*
X82683760Y-118057753D01*
X82481585Y-118123444D01*
X82292179Y-118219951D01*
X82120213Y-118344890D01*
X81969894Y-118495209D01*
X81969890Y-118495214D01*
X81850318Y-118659793D01*
X81794989Y-118702459D01*
X81725375Y-118708438D01*
X81663580Y-118675833D01*
X81649682Y-118659793D01*
X81530109Y-118495214D01*
X81530105Y-118495209D01*
X81379786Y-118344890D01*
X81207820Y-118219951D01*
X81018414Y-118123444D01*
X81018413Y-118123443D01*
X81018412Y-118123443D01*
X80816243Y-118057754D01*
X80816241Y-118057753D01*
X80816240Y-118057753D01*
X80654957Y-118032208D01*
X80606287Y-118024500D01*
X80393713Y-118024500D01*
X80345042Y-118032208D01*
X80183760Y-118057753D01*
X79981585Y-118123444D01*
X79792179Y-118219951D01*
X79620213Y-118344890D01*
X79469894Y-118495209D01*
X79469890Y-118495214D01*
X79350318Y-118659793D01*
X79294989Y-118702459D01*
X79225375Y-118708438D01*
X79163580Y-118675833D01*
X79149682Y-118659793D01*
X79030109Y-118495214D01*
X79030105Y-118495209D01*
X78879786Y-118344890D01*
X78707820Y-118219951D01*
X78518414Y-118123444D01*
X78518413Y-118123443D01*
X78518412Y-118123443D01*
X78316243Y-118057754D01*
X78316241Y-118057753D01*
X78316240Y-118057753D01*
X78154957Y-118032208D01*
X78106287Y-118024500D01*
X77893713Y-118024500D01*
X77845042Y-118032208D01*
X77683760Y-118057753D01*
X77481585Y-118123444D01*
X77292179Y-118219951D01*
X77120213Y-118344890D01*
X76969894Y-118495209D01*
X76969890Y-118495214D01*
X76850318Y-118659793D01*
X76794989Y-118702459D01*
X76725375Y-118708438D01*
X76663580Y-118675833D01*
X76649682Y-118659793D01*
X76530109Y-118495214D01*
X76530105Y-118495209D01*
X76379786Y-118344890D01*
X76207820Y-118219951D01*
X76018414Y-118123444D01*
X76018413Y-118123443D01*
X76018412Y-118123443D01*
X75816243Y-118057754D01*
X75816241Y-118057753D01*
X75816240Y-118057753D01*
X75654957Y-118032208D01*
X75606287Y-118024500D01*
X75393713Y-118024500D01*
X75345042Y-118032208D01*
X75183760Y-118057753D01*
X74981585Y-118123444D01*
X74792179Y-118219951D01*
X74620213Y-118344890D01*
X74469894Y-118495209D01*
X74469890Y-118495214D01*
X74350318Y-118659793D01*
X74294989Y-118702459D01*
X74225375Y-118708438D01*
X74163580Y-118675833D01*
X74149682Y-118659793D01*
X74030109Y-118495214D01*
X74030105Y-118495209D01*
X73879786Y-118344890D01*
X73707820Y-118219951D01*
X73518414Y-118123444D01*
X73518413Y-118123443D01*
X73518412Y-118123443D01*
X73316243Y-118057754D01*
X73316241Y-118057753D01*
X73316240Y-118057753D01*
X73154957Y-118032208D01*
X73106287Y-118024500D01*
X72893713Y-118024500D01*
X72845042Y-118032208D01*
X72683760Y-118057753D01*
X72481585Y-118123444D01*
X72292179Y-118219951D01*
X72120215Y-118344889D01*
X71981035Y-118484069D01*
X71919712Y-118517553D01*
X71850020Y-118512569D01*
X71794087Y-118470697D01*
X71787815Y-118461484D01*
X71692315Y-118306654D01*
X71568345Y-118182684D01*
X71419124Y-118090643D01*
X71419119Y-118090641D01*
X71252697Y-118035494D01*
X71252690Y-118035493D01*
X71149986Y-118025000D01*
X70750000Y-118025000D01*
X70750000Y-119095854D01*
X70683343Y-119057370D01*
X70562535Y-119025000D01*
X70437465Y-119025000D01*
X70316657Y-119057370D01*
X70250000Y-119095854D01*
X70250000Y-118025000D01*
X69850028Y-118025000D01*
X69850012Y-118025001D01*
X69747302Y-118035494D01*
X69580880Y-118090641D01*
X69580875Y-118090643D01*
X69431654Y-118182684D01*
X69307684Y-118306654D01*
X69215643Y-118455875D01*
X69215641Y-118455880D01*
X69160494Y-118622302D01*
X69160493Y-118622309D01*
X69150000Y-118725013D01*
X57771305Y-118725013D01*
X57689704Y-118643412D01*
X57689697Y-118643406D01*
X57502454Y-118499730D01*
X57502453Y-118499729D01*
X57502450Y-118499727D01*
X57420957Y-118452677D01*
X57298056Y-118381719D01*
X57298045Y-118381714D01*
X57079993Y-118291394D01*
X56852010Y-118230306D01*
X56618020Y-118199501D01*
X56618017Y-118199500D01*
X56618011Y-118199500D01*
X56381989Y-118199500D01*
X56381983Y-118199500D01*
X56381979Y-118199501D01*
X56147989Y-118230306D01*
X55920006Y-118291394D01*
X55701954Y-118381714D01*
X55701943Y-118381719D01*
X55547831Y-118470697D01*
X55505369Y-118495213D01*
X55497545Y-118499730D01*
X55310302Y-118643406D01*
X55310295Y-118643412D01*
X55143412Y-118810295D01*
X55143406Y-118810302D01*
X54999730Y-118997545D01*
X54881719Y-119201943D01*
X54881714Y-119201954D01*
X54791394Y-119420006D01*
X54730306Y-119647989D01*
X54699501Y-119881979D01*
X54699500Y-119881995D01*
X54699500Y-120118004D01*
X54699501Y-120118020D01*
X54730306Y-120352010D01*
X54791394Y-120579993D01*
X54881714Y-120798045D01*
X54881719Y-120798056D01*
X54945979Y-120909356D01*
X54999727Y-121002450D01*
X54999729Y-121002453D01*
X54999730Y-121002454D01*
X55143406Y-121189697D01*
X55143412Y-121189704D01*
X55310295Y-121356587D01*
X55310302Y-121356593D01*
X55326633Y-121369124D01*
X55497550Y-121500273D01*
X55628918Y-121576118D01*
X55701943Y-121618280D01*
X55701948Y-121618282D01*
X55701951Y-121618284D01*
X55920007Y-121708606D01*
X56095860Y-121755726D01*
X56155519Y-121792090D01*
X56186048Y-121854937D01*
X56177753Y-121924313D01*
X56133268Y-121978190D01*
X56066716Y-121999465D01*
X56063765Y-121999500D01*
X52837400Y-121999500D01*
X52770361Y-121979815D01*
X52724606Y-121927011D01*
X52714662Y-121857853D01*
X52743687Y-121794297D01*
X52798396Y-121757794D01*
X52869119Y-121734358D01*
X52869124Y-121734356D01*
X53018345Y-121642315D01*
X53142315Y-121518345D01*
X53234356Y-121369124D01*
X53234358Y-121369119D01*
X53289505Y-121202697D01*
X53289506Y-121202690D01*
X53299999Y-121099986D01*
X53300000Y-121099973D01*
X53300000Y-120250000D01*
X52100001Y-120250000D01*
X52125021Y-120189598D01*
X52150000Y-120064019D01*
X52150000Y-119935981D01*
X52125021Y-119810402D01*
X52100001Y-119750000D01*
X53299999Y-119750000D01*
X53299999Y-118900028D01*
X53299998Y-118900013D01*
X53289505Y-118797302D01*
X53234358Y-118630880D01*
X53234356Y-118630875D01*
X53142315Y-118481654D01*
X53018345Y-118357684D01*
X52869124Y-118265643D01*
X52869119Y-118265641D01*
X52702697Y-118210494D01*
X52702690Y-118210493D01*
X52599986Y-118200000D01*
X51750000Y-118200000D01*
X51750000Y-119399998D01*
X51689598Y-119374979D01*
X51564019Y-119350000D01*
X51435981Y-119350000D01*
X51310402Y-119374979D01*
X51250000Y-119399998D01*
X51250000Y-118200000D01*
X50400028Y-118200000D01*
X50400012Y-118200001D01*
X50297302Y-118210494D01*
X50130880Y-118265641D01*
X50130875Y-118265643D01*
X49981654Y-118357684D01*
X49857684Y-118481654D01*
X49765643Y-118630875D01*
X49765641Y-118630880D01*
X49710494Y-118797302D01*
X49710493Y-118797309D01*
X49700000Y-118900013D01*
X49700000Y-119750000D01*
X50899999Y-119750000D01*
X50874979Y-119810402D01*
X50850000Y-119935981D01*
X50850000Y-120064019D01*
X50874979Y-120189598D01*
X50899999Y-120250000D01*
X49700001Y-120250000D01*
X49700001Y-121099986D01*
X49710494Y-121202697D01*
X49765641Y-121369119D01*
X49765643Y-121369124D01*
X49857684Y-121518345D01*
X49981654Y-121642315D01*
X50130875Y-121734356D01*
X50130880Y-121734358D01*
X50201605Y-121757794D01*
X50259050Y-121797566D01*
X50285873Y-121862082D01*
X50273558Y-121930858D01*
X50226015Y-121982058D01*
X50162601Y-121999500D01*
X38624500Y-121999500D01*
X38557461Y-121979815D01*
X38511706Y-121927011D01*
X38500500Y-121875500D01*
X38500500Y-118393713D01*
X41149500Y-118393713D01*
X41149500Y-118606286D01*
X41182753Y-118816239D01*
X41182753Y-118816241D01*
X41182754Y-118816243D01*
X41241664Y-118997550D01*
X41248444Y-119018414D01*
X41344951Y-119207820D01*
X41469890Y-119379786D01*
X41620213Y-119530109D01*
X41792179Y-119655048D01*
X41792181Y-119655049D01*
X41792184Y-119655051D01*
X41981588Y-119751557D01*
X42183757Y-119817246D01*
X42393713Y-119850500D01*
X42393714Y-119850500D01*
X42606286Y-119850500D01*
X42606287Y-119850500D01*
X42816243Y-119817246D01*
X43018412Y-119751557D01*
X43207816Y-119655051D01*
X43229789Y-119639086D01*
X43379786Y-119530109D01*
X43379788Y-119530106D01*
X43379792Y-119530104D01*
X43530104Y-119379792D01*
X43530106Y-119379788D01*
X43530109Y-119379786D01*
X43655048Y-119207820D01*
X43655047Y-119207820D01*
X43655051Y-119207816D01*
X43751557Y-119018412D01*
X43817246Y-118816243D01*
X43850500Y-118606287D01*
X43850500Y-118393713D01*
X43817246Y-118183757D01*
X43751557Y-117981588D01*
X43655051Y-117792184D01*
X43655049Y-117792181D01*
X43655048Y-117792179D01*
X43530109Y-117620213D01*
X43379786Y-117469890D01*
X43207820Y-117344951D01*
X43018414Y-117248444D01*
X43018413Y-117248443D01*
X43018412Y-117248443D01*
X42816243Y-117182754D01*
X42816241Y-117182753D01*
X42816240Y-117182753D01*
X42654957Y-117157208D01*
X42606287Y-117149500D01*
X42393713Y-117149500D01*
X42345042Y-117157208D01*
X42183760Y-117182753D01*
X41981585Y-117248444D01*
X41792179Y-117344951D01*
X41620213Y-117469890D01*
X41469890Y-117620213D01*
X41344951Y-117792179D01*
X41248444Y-117981585D01*
X41182753Y-118183760D01*
X41149500Y-118393713D01*
X38500500Y-118393713D01*
X38500500Y-111893713D01*
X87649500Y-111893713D01*
X87649500Y-112106286D01*
X87682753Y-112316239D01*
X87748444Y-112518414D01*
X87844951Y-112707820D01*
X87969890Y-112879786D01*
X88120213Y-113030109D01*
X88292179Y-113155048D01*
X88292181Y-113155049D01*
X88292184Y-113155051D01*
X88481588Y-113251557D01*
X88683757Y-113317246D01*
X88893713Y-113350500D01*
X88893714Y-113350500D01*
X89106286Y-113350500D01*
X89106287Y-113350500D01*
X89316243Y-113317246D01*
X89518412Y-113251557D01*
X89707816Y-113155051D01*
X89729789Y-113139086D01*
X89879786Y-113030109D01*
X89879788Y-113030106D01*
X89879792Y-113030104D01*
X90030104Y-112879792D01*
X90030106Y-112879788D01*
X90030109Y-112879786D01*
X90155048Y-112707820D01*
X90155047Y-112707820D01*
X90155051Y-112707816D01*
X90251557Y-112518412D01*
X90317246Y-112316243D01*
X90350500Y-112106287D01*
X90350500Y-111893713D01*
X90317246Y-111683757D01*
X90251557Y-111481588D01*
X90155051Y-111292184D01*
X90155049Y-111292181D01*
X90155048Y-111292179D01*
X90030109Y-111120213D01*
X89879786Y-110969890D01*
X89707820Y-110844951D01*
X89518414Y-110748444D01*
X89518413Y-110748443D01*
X89518412Y-110748443D01*
X89316243Y-110682754D01*
X89316241Y-110682753D01*
X89316240Y-110682753D01*
X89154957Y-110657208D01*
X89106287Y-110649500D01*
X88893713Y-110649500D01*
X88845042Y-110657208D01*
X88683760Y-110682753D01*
X88481585Y-110748444D01*
X88292179Y-110844951D01*
X88120213Y-110969890D01*
X87969890Y-111120213D01*
X87844951Y-111292179D01*
X87748444Y-111481585D01*
X87682753Y-111683760D01*
X87649500Y-111893713D01*
X38500500Y-111893713D01*
X38500500Y-107335155D01*
X42766400Y-107335155D01*
X42766400Y-107895000D01*
X43595388Y-107895000D01*
X43562475Y-107952007D01*
X43528400Y-108079174D01*
X43528400Y-108210826D01*
X43562475Y-108337993D01*
X43595388Y-108395000D01*
X42766400Y-108395000D01*
X42766400Y-108954844D01*
X42772801Y-109014372D01*
X42772803Y-109014379D01*
X42823045Y-109149086D01*
X42823049Y-109149093D01*
X42909209Y-109264187D01*
X42909212Y-109264190D01*
X43024306Y-109350350D01*
X43024313Y-109350354D01*
X43159020Y-109400596D01*
X43159027Y-109400598D01*
X43218555Y-109406999D01*
X43218572Y-109407000D01*
X43778400Y-109407000D01*
X43778400Y-108578012D01*
X43835407Y-108610925D01*
X43962574Y-108645000D01*
X44094226Y-108645000D01*
X44221393Y-108610925D01*
X44278400Y-108578012D01*
X44278400Y-109407000D01*
X44838228Y-109407000D01*
X44838244Y-109406999D01*
X44897772Y-109400598D01*
X44897779Y-109400596D01*
X45032486Y-109350354D01*
X45032493Y-109350350D01*
X45147587Y-109264190D01*
X45147590Y-109264187D01*
X45233750Y-109149093D01*
X45233754Y-109149086D01*
X45283996Y-109014379D01*
X45283998Y-109014372D01*
X45290399Y-108954844D01*
X45290400Y-108954827D01*
X45290400Y-108395000D01*
X44461412Y-108395000D01*
X44494325Y-108337993D01*
X44528400Y-108210826D01*
X44528400Y-108079174D01*
X44494325Y-107952007D01*
X44461412Y-107895000D01*
X45290400Y-107895000D01*
X45290400Y-107335172D01*
X45290399Y-107335155D01*
X82238000Y-107335155D01*
X82238000Y-107895000D01*
X83066988Y-107895000D01*
X83034075Y-107952007D01*
X83000000Y-108079174D01*
X83000000Y-108210826D01*
X83034075Y-108337993D01*
X83066988Y-108395000D01*
X82238000Y-108395000D01*
X82238000Y-108954844D01*
X82244401Y-109014372D01*
X82244403Y-109014379D01*
X82294645Y-109149086D01*
X82294649Y-109149093D01*
X82380809Y-109264187D01*
X82380812Y-109264190D01*
X82495906Y-109350350D01*
X82495913Y-109350354D01*
X82630620Y-109400596D01*
X82630627Y-109400598D01*
X82690155Y-109406999D01*
X82690172Y-109407000D01*
X83250000Y-109407000D01*
X83250000Y-108578012D01*
X83307007Y-108610925D01*
X83434174Y-108645000D01*
X83565826Y-108645000D01*
X83692993Y-108610925D01*
X83750000Y-108578012D01*
X83750000Y-109407000D01*
X84309828Y-109407000D01*
X84309844Y-109406999D01*
X84369372Y-109400598D01*
X84369379Y-109400596D01*
X84504086Y-109350354D01*
X84504093Y-109350350D01*
X84619187Y-109264190D01*
X84619190Y-109264187D01*
X84705350Y-109149093D01*
X84705354Y-109149086D01*
X84755596Y-109014379D01*
X84755598Y-109014372D01*
X84761999Y-108954844D01*
X84762000Y-108954827D01*
X84762000Y-108395000D01*
X83933012Y-108395000D01*
X83965925Y-108337993D01*
X84000000Y-108210826D01*
X84000000Y-108079174D01*
X83965925Y-107952007D01*
X83933012Y-107895000D01*
X84762000Y-107895000D01*
X84762000Y-107335172D01*
X84761999Y-107335155D01*
X84755598Y-107275627D01*
X84755596Y-107275620D01*
X84705354Y-107140913D01*
X84705350Y-107140906D01*
X84619190Y-107025812D01*
X84619187Y-107025809D01*
X84504093Y-106939649D01*
X84504086Y-106939645D01*
X84369379Y-106889403D01*
X84369372Y-106889401D01*
X84309844Y-106883000D01*
X83750000Y-106883000D01*
X83750000Y-107711988D01*
X83692993Y-107679075D01*
X83565826Y-107645000D01*
X83434174Y-107645000D01*
X83307007Y-107679075D01*
X83250000Y-107711988D01*
X83250000Y-106883000D01*
X82690155Y-106883000D01*
X82630627Y-106889401D01*
X82630620Y-106889403D01*
X82495913Y-106939645D01*
X82495906Y-106939649D01*
X82380812Y-107025809D01*
X82380809Y-107025812D01*
X82294649Y-107140906D01*
X82294645Y-107140913D01*
X82244403Y-107275620D01*
X82244401Y-107275627D01*
X82238000Y-107335155D01*
X45290399Y-107335155D01*
X45283998Y-107275627D01*
X45283996Y-107275620D01*
X45233754Y-107140913D01*
X45233750Y-107140906D01*
X45147590Y-107025812D01*
X45147587Y-107025809D01*
X45032493Y-106939649D01*
X45032486Y-106939645D01*
X44897779Y-106889403D01*
X44897772Y-106889401D01*
X44838244Y-106883000D01*
X44278400Y-106883000D01*
X44278400Y-107711988D01*
X44221393Y-107679075D01*
X44094226Y-107645000D01*
X43962574Y-107645000D01*
X43835407Y-107679075D01*
X43778400Y-107711988D01*
X43778400Y-106883000D01*
X43218555Y-106883000D01*
X43159027Y-106889401D01*
X43159020Y-106889403D01*
X43024313Y-106939645D01*
X43024306Y-106939649D01*
X42909212Y-107025809D01*
X42909209Y-107025812D01*
X42823049Y-107140906D01*
X42823045Y-107140913D01*
X42772803Y-107275620D01*
X42772801Y-107275627D01*
X42766400Y-107335155D01*
X38500500Y-107335155D01*
X38500500Y-98393713D01*
X89579500Y-98393713D01*
X89579500Y-98606286D01*
X89612753Y-98816239D01*
X89678444Y-99018414D01*
X89774951Y-99207820D01*
X89899890Y-99379786D01*
X90050209Y-99530105D01*
X90050214Y-99530109D01*
X90214793Y-99649682D01*
X90257459Y-99705011D01*
X90263438Y-99774625D01*
X90230833Y-99836420D01*
X90214793Y-99850318D01*
X90050214Y-99969890D01*
X90050209Y-99969894D01*
X89899890Y-100120213D01*
X89774951Y-100292179D01*
X89678444Y-100481585D01*
X89612753Y-100683760D01*
X89579500Y-100893713D01*
X89579500Y-101106286D01*
X89612753Y-101316239D01*
X89678444Y-101518414D01*
X89774951Y-101707820D01*
X89899890Y-101879786D01*
X90039068Y-102018964D01*
X90072553Y-102080287D01*
X90067569Y-102149979D01*
X90025697Y-102205912D01*
X90016484Y-102212183D01*
X89861659Y-102307680D01*
X89861655Y-102307683D01*
X89737684Y-102431654D01*
X89645643Y-102580875D01*
X89645641Y-102580880D01*
X89590494Y-102747302D01*
X89590493Y-102747309D01*
X89580000Y-102850013D01*
X89580000Y-103250000D01*
X90650854Y-103250000D01*
X90612370Y-103316657D01*
X90580000Y-103437465D01*
X90580000Y-103562535D01*
X90612370Y-103683343D01*
X90650854Y-103750000D01*
X89580001Y-103750000D01*
X89580001Y-104149986D01*
X89590494Y-104252697D01*
X89645641Y-104419119D01*
X89645643Y-104419124D01*
X89737684Y-104568345D01*
X89861654Y-104692315D01*
X90010875Y-104784356D01*
X90010880Y-104784358D01*
X90177302Y-104839505D01*
X90177309Y-104839506D01*
X90280019Y-104849999D01*
X90804999Y-104849999D01*
X90805000Y-104849998D01*
X90805000Y-103904145D01*
X90871657Y-103942630D01*
X90992465Y-103975000D01*
X91117535Y-103975000D01*
X91238343Y-103942630D01*
X91305000Y-103904145D01*
X91305000Y-104849999D01*
X91829972Y-104849999D01*
X91829986Y-104849998D01*
X91932697Y-104839505D01*
X92099119Y-104784358D01*
X92099124Y-104784356D01*
X92248345Y-104692315D01*
X92372315Y-104568345D01*
X92464356Y-104419124D01*
X92464358Y-104419119D01*
X92519505Y-104252697D01*
X92519506Y-104252690D01*
X92529999Y-104149986D01*
X92530000Y-104149973D01*
X92530000Y-103750000D01*
X91459146Y-103750000D01*
X91497630Y-103683343D01*
X91530000Y-103562535D01*
X91530000Y-103437465D01*
X91497630Y-103316657D01*
X91459146Y-103250000D01*
X92529999Y-103250000D01*
X92529999Y-102850028D01*
X92529998Y-102850013D01*
X92519505Y-102747302D01*
X92464358Y-102580880D01*
X92464356Y-102580875D01*
X92372315Y-102431654D01*
X92248345Y-102307684D01*
X92093515Y-102212184D01*
X92046791Y-102160236D01*
X92035568Y-102091273D01*
X92063412Y-102027191D01*
X92070909Y-102018986D01*
X92210104Y-101879792D01*
X92335051Y-101707816D01*
X92431557Y-101518412D01*
X92497246Y-101316243D01*
X92530500Y-101106287D01*
X92530500Y-100893713D01*
X92497246Y-100683757D01*
X92431557Y-100481588D01*
X92335051Y-100292184D01*
X92335049Y-100292181D01*
X92335048Y-100292179D01*
X92210109Y-100120213D01*
X92059792Y-99969896D01*
X92059784Y-99969890D01*
X91895204Y-99850316D01*
X91852540Y-99794989D01*
X91846561Y-99725376D01*
X91879166Y-99663580D01*
X91895199Y-99649686D01*
X92059792Y-99530104D01*
X92210104Y-99379792D01*
X92210106Y-99379788D01*
X92210109Y-99379786D01*
X92335048Y-99207820D01*
X92335047Y-99207820D01*
X92335051Y-99207816D01*
X92431557Y-99018412D01*
X92497246Y-98816243D01*
X92530500Y-98606287D01*
X92530500Y-98393713D01*
X92497246Y-98183757D01*
X92431557Y-97981588D01*
X92335051Y-97792184D01*
X92335049Y-97792181D01*
X92335048Y-97792179D01*
X92210109Y-97620213D01*
X92059786Y-97469890D01*
X91887820Y-97344951D01*
X91698414Y-97248444D01*
X91698413Y-97248443D01*
X91698412Y-97248443D01*
X91496243Y-97182754D01*
X91496241Y-97182753D01*
X91496240Y-97182753D01*
X91334957Y-97157208D01*
X91286287Y-97149500D01*
X90823713Y-97149500D01*
X90775042Y-97157208D01*
X90613760Y-97182753D01*
X90411585Y-97248444D01*
X90222179Y-97344951D01*
X90050213Y-97469890D01*
X89899890Y-97620213D01*
X89774951Y-97792179D01*
X89678444Y-97981585D01*
X89612753Y-98183760D01*
X89579500Y-98393713D01*
X38500500Y-98393713D01*
X38500500Y-90164735D01*
X42765900Y-90164735D01*
X42765900Y-91784470D01*
X42765901Y-91784476D01*
X42772308Y-91844083D01*
X42822602Y-91978928D01*
X42822606Y-91978935D01*
X42908852Y-92094144D01*
X42908855Y-92094147D01*
X43024064Y-92180393D01*
X43024071Y-92180397D01*
X43158917Y-92230691D01*
X43158916Y-92230691D01*
X43165844Y-92231435D01*
X43218527Y-92237100D01*
X44838272Y-92237099D01*
X44897883Y-92230691D01*
X45032731Y-92180396D01*
X45147946Y-92094146D01*
X45234196Y-91978931D01*
X45284491Y-91844083D01*
X45290900Y-91784473D01*
X45290899Y-90190135D01*
X82237500Y-90190135D01*
X82237500Y-91809870D01*
X82237501Y-91809876D01*
X82243908Y-91869483D01*
X82294202Y-92004328D01*
X82294206Y-92004335D01*
X82380452Y-92119544D01*
X82380455Y-92119547D01*
X82495664Y-92205793D01*
X82495671Y-92205797D01*
X82630517Y-92256091D01*
X82630516Y-92256091D01*
X82637444Y-92256835D01*
X82690127Y-92262500D01*
X84309872Y-92262499D01*
X84369483Y-92256091D01*
X84504331Y-92205796D01*
X84619546Y-92119546D01*
X84705796Y-92004331D01*
X84756091Y-91869483D01*
X84762500Y-91809873D01*
X84762499Y-90190128D01*
X84756091Y-90130517D01*
X84746617Y-90105117D01*
X84707411Y-90000000D01*
X84705796Y-89995669D01*
X84705794Y-89995666D01*
X84705793Y-89995664D01*
X84619547Y-89880455D01*
X84619544Y-89880452D01*
X84504335Y-89794206D01*
X84504328Y-89794202D01*
X84369482Y-89743908D01*
X84369483Y-89743908D01*
X84309883Y-89737501D01*
X84309881Y-89737500D01*
X84309873Y-89737500D01*
X84309864Y-89737500D01*
X82690129Y-89737500D01*
X82690123Y-89737501D01*
X82630516Y-89743908D01*
X82495671Y-89794202D01*
X82495664Y-89794206D01*
X82380455Y-89880452D01*
X82380452Y-89880455D01*
X82294206Y-89995664D01*
X82294202Y-89995671D01*
X82243908Y-90130517D01*
X82240230Y-90164735D01*
X82237501Y-90190123D01*
X82237500Y-90190135D01*
X45290899Y-90190135D01*
X45290899Y-90164728D01*
X45284491Y-90105117D01*
X45243670Y-89995671D01*
X45234197Y-89970271D01*
X45234193Y-89970264D01*
X45147947Y-89855055D01*
X45147944Y-89855052D01*
X45032735Y-89768806D01*
X45032728Y-89768802D01*
X44897882Y-89718508D01*
X44897883Y-89718508D01*
X44838283Y-89712101D01*
X44838281Y-89712100D01*
X44838273Y-89712100D01*
X44838264Y-89712100D01*
X43218529Y-89712100D01*
X43218523Y-89712101D01*
X43158916Y-89718508D01*
X43024071Y-89768802D01*
X43024064Y-89768806D01*
X42908855Y-89855052D01*
X42908852Y-89855055D01*
X42822606Y-89970264D01*
X42822602Y-89970271D01*
X42772308Y-90105117D01*
X42765901Y-90164716D01*
X42765901Y-90164723D01*
X42765900Y-90164735D01*
X38500500Y-90164735D01*
X38500500Y-84393713D01*
X77649500Y-84393713D01*
X77649500Y-84606286D01*
X77682753Y-84816239D01*
X77748444Y-85018414D01*
X77844951Y-85207820D01*
X77969890Y-85379786D01*
X78120213Y-85530109D01*
X78292179Y-85655048D01*
X78292181Y-85655049D01*
X78292184Y-85655051D01*
X78481588Y-85751557D01*
X78683757Y-85817246D01*
X78893713Y-85850500D01*
X78893714Y-85850500D01*
X79106286Y-85850500D01*
X79106287Y-85850500D01*
X79316243Y-85817246D01*
X79518412Y-85751557D01*
X79707816Y-85655051D01*
X79742591Y-85629786D01*
X79879786Y-85530109D01*
X79879788Y-85530106D01*
X79879792Y-85530104D01*
X80030104Y-85379792D01*
X80030106Y-85379788D01*
X80030109Y-85379786D01*
X80155048Y-85207820D01*
X80155047Y-85207820D01*
X80155051Y-85207816D01*
X80251557Y-85018412D01*
X80317246Y-84816243D01*
X80350500Y-84606287D01*
X80350500Y-84393713D01*
X80317246Y-84183757D01*
X80251557Y-83981588D01*
X80155051Y-83792184D01*
X80155049Y-83792181D01*
X80155048Y-83792179D01*
X80030109Y-83620213D01*
X79879786Y-83469890D01*
X79707820Y-83344951D01*
X79518414Y-83248444D01*
X79518413Y-83248443D01*
X79518412Y-83248443D01*
X79316243Y-83182754D01*
X79316241Y-83182753D01*
X79316240Y-83182753D01*
X79154957Y-83157208D01*
X79106287Y-83149500D01*
X78893713Y-83149500D01*
X78845042Y-83157208D01*
X78683760Y-83182753D01*
X78481585Y-83248444D01*
X78292179Y-83344951D01*
X78120213Y-83469890D01*
X77969890Y-83620213D01*
X77844951Y-83792179D01*
X77748444Y-83981585D01*
X77682753Y-84183760D01*
X77649500Y-84393713D01*
X38500500Y-84393713D01*
X38500500Y-82143713D01*
X89674500Y-82143713D01*
X89674500Y-82356286D01*
X89707753Y-82566239D01*
X89773444Y-82768414D01*
X89869951Y-82957820D01*
X89994890Y-83129786D01*
X90145209Y-83280105D01*
X90145214Y-83280109D01*
X90309793Y-83399682D01*
X90352459Y-83455011D01*
X90358438Y-83524625D01*
X90325833Y-83586420D01*
X90309793Y-83600318D01*
X90145214Y-83719890D01*
X90145209Y-83719894D01*
X89994890Y-83870213D01*
X89869951Y-84042179D01*
X89773444Y-84231585D01*
X89707753Y-84433760D01*
X89674500Y-84643713D01*
X89674500Y-84856286D01*
X89700178Y-85018414D01*
X89707754Y-85066243D01*
X89753755Y-85207820D01*
X89773444Y-85268414D01*
X89869951Y-85457820D01*
X89994890Y-85629786D01*
X90145209Y-85780105D01*
X90145214Y-85780109D01*
X90309793Y-85899682D01*
X90352459Y-85955011D01*
X90358438Y-86024625D01*
X90325833Y-86086420D01*
X90309793Y-86100318D01*
X90145214Y-86219890D01*
X90145209Y-86219894D01*
X89994890Y-86370213D01*
X89869951Y-86542179D01*
X89773444Y-86731585D01*
X89707753Y-86933760D01*
X89674500Y-87143713D01*
X89674500Y-87356286D01*
X89707753Y-87566239D01*
X89773444Y-87768414D01*
X89869951Y-87957820D01*
X89994890Y-88129786D01*
X90134068Y-88268964D01*
X90167553Y-88330287D01*
X90162569Y-88399979D01*
X90120697Y-88455912D01*
X90111484Y-88462183D01*
X89956659Y-88557680D01*
X89956655Y-88557683D01*
X89832684Y-88681654D01*
X89740643Y-88830875D01*
X89740641Y-88830880D01*
X89685494Y-88997302D01*
X89685493Y-88997309D01*
X89675000Y-89100013D01*
X89675000Y-89500000D01*
X90745854Y-89500000D01*
X90707370Y-89566657D01*
X90675000Y-89687465D01*
X90675000Y-89812535D01*
X90707370Y-89933343D01*
X90745854Y-90000000D01*
X89675001Y-90000000D01*
X89675001Y-90399986D01*
X89685494Y-90502697D01*
X89740641Y-90669119D01*
X89740643Y-90669124D01*
X89832684Y-90818345D01*
X89956654Y-90942315D01*
X90105875Y-91034356D01*
X90105880Y-91034358D01*
X90272302Y-91089505D01*
X90272309Y-91089506D01*
X90375019Y-91099999D01*
X90899999Y-91099999D01*
X90900000Y-91099998D01*
X90900000Y-90154145D01*
X90966657Y-90192630D01*
X91087465Y-90225000D01*
X91212535Y-90225000D01*
X91333343Y-90192630D01*
X91400000Y-90154145D01*
X91400000Y-91099999D01*
X91924972Y-91099999D01*
X91924986Y-91099998D01*
X92027697Y-91089505D01*
X92194119Y-91034358D01*
X92194124Y-91034356D01*
X92343345Y-90942315D01*
X92467315Y-90818345D01*
X92559356Y-90669124D01*
X92559358Y-90669119D01*
X92614505Y-90502697D01*
X92614506Y-90502690D01*
X92624999Y-90399986D01*
X92625000Y-90399973D01*
X92625000Y-90000000D01*
X91554146Y-90000000D01*
X91592630Y-89933343D01*
X91625000Y-89812535D01*
X91625000Y-89687465D01*
X91592630Y-89566657D01*
X91554146Y-89500000D01*
X92624999Y-89500000D01*
X92624999Y-89100028D01*
X92624998Y-89100013D01*
X92614505Y-88997302D01*
X92559358Y-88830880D01*
X92559356Y-88830875D01*
X92467315Y-88681654D01*
X92343345Y-88557684D01*
X92188515Y-88462184D01*
X92141791Y-88410236D01*
X92130568Y-88341273D01*
X92158412Y-88277191D01*
X92165909Y-88268986D01*
X92305104Y-88129792D01*
X92430051Y-87957816D01*
X92526557Y-87768412D01*
X92592246Y-87566243D01*
X92625500Y-87356287D01*
X92625500Y-87143713D01*
X92592246Y-86933757D01*
X92526557Y-86731588D01*
X92430051Y-86542184D01*
X92430049Y-86542181D01*
X92430048Y-86542179D01*
X92305109Y-86370213D01*
X92154792Y-86219896D01*
X92154784Y-86219890D01*
X91990204Y-86100316D01*
X91947540Y-86044989D01*
X91941561Y-85975376D01*
X91974166Y-85913580D01*
X91990199Y-85899686D01*
X92154792Y-85780104D01*
X92305104Y-85629792D01*
X92305106Y-85629788D01*
X92305109Y-85629786D01*
X92430048Y-85457820D01*
X92430047Y-85457820D01*
X92430051Y-85457816D01*
X92526557Y-85268412D01*
X92592246Y-85066243D01*
X92625500Y-84856287D01*
X92625500Y-84643713D01*
X92592246Y-84433757D01*
X92526557Y-84231588D01*
X92430051Y-84042184D01*
X92430049Y-84042181D01*
X92430048Y-84042179D01*
X92305109Y-83870213D01*
X92154792Y-83719896D01*
X92154784Y-83719890D01*
X91990204Y-83600316D01*
X91947540Y-83544989D01*
X91941561Y-83475376D01*
X91974166Y-83413580D01*
X91990199Y-83399686D01*
X92154792Y-83280104D01*
X92305104Y-83129792D01*
X92305106Y-83129788D01*
X92305109Y-83129786D01*
X92430048Y-82957820D01*
X92430047Y-82957820D01*
X92430051Y-82957816D01*
X92526557Y-82768412D01*
X92592246Y-82566243D01*
X92625500Y-82356287D01*
X92625500Y-82143713D01*
X92592246Y-81933757D01*
X92526557Y-81731588D01*
X92430051Y-81542184D01*
X92430049Y-81542181D01*
X92430048Y-81542179D01*
X92305109Y-81370213D01*
X92154786Y-81219890D01*
X91982820Y-81094951D01*
X91793414Y-80998444D01*
X91793413Y-80998443D01*
X91793412Y-80998443D01*
X91591243Y-80932754D01*
X91591241Y-80932753D01*
X91591240Y-80932753D01*
X91429957Y-80907208D01*
X91381287Y-80899500D01*
X90918713Y-80899500D01*
X90870042Y-80907208D01*
X90708760Y-80932753D01*
X90506585Y-80998444D01*
X90317179Y-81094951D01*
X90145213Y-81219890D01*
X89994890Y-81370213D01*
X89869951Y-81542179D01*
X89773444Y-81731585D01*
X89707753Y-81933760D01*
X89674500Y-82143713D01*
X38500500Y-82143713D01*
X38500500Y-79729999D01*
X45625884Y-79729999D01*
X45625885Y-79730000D01*
X46784314Y-79730000D01*
X46779920Y-79734394D01*
X46727259Y-79825606D01*
X46700000Y-79927339D01*
X46700000Y-80032661D01*
X46727259Y-80134394D01*
X46779920Y-80225606D01*
X46784314Y-80230000D01*
X45625885Y-80230000D01*
X45627085Y-80237584D01*
X45680591Y-80402255D01*
X45759195Y-80556524D01*
X45860967Y-80696602D01*
X45983397Y-80819032D01*
X46123475Y-80920804D01*
X46277742Y-80999408D01*
X46442415Y-81052914D01*
X46613429Y-81080000D01*
X46850000Y-81080000D01*
X46850000Y-80295686D01*
X46854394Y-80300080D01*
X46945606Y-80352741D01*
X47047339Y-80380000D01*
X47152661Y-80380000D01*
X47254394Y-80352741D01*
X47345606Y-80300080D01*
X47350000Y-80295686D01*
X47350000Y-81080000D01*
X47586571Y-81080000D01*
X47757584Y-81052914D01*
X47922257Y-80999408D01*
X48076524Y-80920804D01*
X48216602Y-80819032D01*
X48339032Y-80696602D01*
X48440804Y-80556524D01*
X48519408Y-80402255D01*
X48572914Y-80237584D01*
X48574115Y-80230000D01*
X47415686Y-80230000D01*
X47420080Y-80225606D01*
X47472741Y-80134394D01*
X47500000Y-80032661D01*
X47500000Y-79927339D01*
X47472741Y-79825606D01*
X47420080Y-79734394D01*
X47415686Y-79730000D01*
X48574115Y-79730000D01*
X48574115Y-79729999D01*
X48572914Y-79722415D01*
X48519408Y-79557744D01*
X48440802Y-79403471D01*
X48439505Y-79401686D01*
X48439504Y-79401685D01*
X48388973Y-79332135D01*
X70999500Y-79332135D01*
X70999500Y-80627870D01*
X70999501Y-80627876D01*
X71005908Y-80687483D01*
X71056202Y-80822328D01*
X71056206Y-80822335D01*
X71142452Y-80937544D01*
X71142455Y-80937547D01*
X71257664Y-81023793D01*
X71257671Y-81023797D01*
X71392517Y-81074091D01*
X71392516Y-81074091D01*
X71399444Y-81074835D01*
X71452127Y-81080500D01*
X73547872Y-81080499D01*
X73607483Y-81074091D01*
X73742331Y-81023796D01*
X73857546Y-80937546D01*
X73943796Y-80822331D01*
X73994091Y-80687483D01*
X74000500Y-80627873D01*
X74000499Y-79332128D01*
X73994091Y-79272517D01*
X73990690Y-79263399D01*
X73943797Y-79137671D01*
X73943793Y-79137664D01*
X73857547Y-79022455D01*
X73857544Y-79022452D01*
X73742335Y-78936206D01*
X73742328Y-78936202D01*
X73607482Y-78885908D01*
X73607483Y-78885908D01*
X73547883Y-78879501D01*
X73547881Y-78879500D01*
X73547873Y-78879500D01*
X73547864Y-78879500D01*
X71452129Y-78879500D01*
X71452123Y-78879501D01*
X71392516Y-78885908D01*
X71257671Y-78936202D01*
X71257664Y-78936206D01*
X71142455Y-79022452D01*
X71142452Y-79022455D01*
X71056206Y-79137664D01*
X71056202Y-79137671D01*
X71005908Y-79272517D01*
X70999501Y-79332116D01*
X70999501Y-79332123D01*
X70999500Y-79332135D01*
X48388973Y-79332135D01*
X48339038Y-79263404D01*
X48339034Y-79263399D01*
X48216602Y-79140967D01*
X48076524Y-79039195D01*
X47922257Y-78960591D01*
X47757584Y-78907085D01*
X47586571Y-78880000D01*
X47350000Y-78880000D01*
X47350000Y-79664314D01*
X47345606Y-79659920D01*
X47254394Y-79607259D01*
X47152661Y-79580000D01*
X47047339Y-79580000D01*
X46945606Y-79607259D01*
X46854394Y-79659920D01*
X46850000Y-79664314D01*
X46850000Y-78880000D01*
X46613429Y-78880000D01*
X46442415Y-78907085D01*
X46277742Y-78960591D01*
X46123475Y-79039195D01*
X45983397Y-79140967D01*
X45860967Y-79263397D01*
X45759195Y-79403475D01*
X45680591Y-79557744D01*
X45627085Y-79722415D01*
X45625884Y-79729999D01*
X38500500Y-79729999D01*
X38500500Y-77353389D01*
X45599500Y-77353389D01*
X45599500Y-77526611D01*
X45626598Y-77697701D01*
X45680127Y-77862445D01*
X45758768Y-78016788D01*
X45860586Y-78156928D01*
X45983072Y-78279414D01*
X46123212Y-78381232D01*
X46277555Y-78459873D01*
X46442299Y-78513402D01*
X46613389Y-78540500D01*
X46613390Y-78540500D01*
X47586610Y-78540500D01*
X47586611Y-78540500D01*
X47757701Y-78513402D01*
X47922445Y-78459873D01*
X48076788Y-78381232D01*
X48216928Y-78279414D01*
X48339414Y-78156928D01*
X48441232Y-78016788D01*
X48519873Y-77862445D01*
X48573402Y-77697701D01*
X48600500Y-77526611D01*
X48600500Y-77353389D01*
X70999500Y-77353389D01*
X70999500Y-77526611D01*
X71026598Y-77697701D01*
X71080127Y-77862445D01*
X71158768Y-78016788D01*
X71260586Y-78156928D01*
X71383072Y-78279414D01*
X71523212Y-78381232D01*
X71677555Y-78459873D01*
X71842299Y-78513402D01*
X72013389Y-78540500D01*
X72013390Y-78540500D01*
X72986610Y-78540500D01*
X72986611Y-78540500D01*
X73157701Y-78513402D01*
X73322445Y-78459873D01*
X73476788Y-78381232D01*
X73616928Y-78279414D01*
X73739414Y-78156928D01*
X73841232Y-78016788D01*
X73919873Y-77862445D01*
X73973402Y-77697701D01*
X74000500Y-77526611D01*
X74000500Y-77353389D01*
X73973402Y-77182299D01*
X73919873Y-77017555D01*
X73841232Y-76863212D01*
X73739414Y-76723072D01*
X73616928Y-76600586D01*
X73476788Y-76498768D01*
X73322445Y-76420127D01*
X73157701Y-76366598D01*
X73157699Y-76366597D01*
X73157698Y-76366597D01*
X73026271Y-76345781D01*
X72986611Y-76339500D01*
X72013389Y-76339500D01*
X71973728Y-76345781D01*
X71842302Y-76366597D01*
X71677552Y-76420128D01*
X71523211Y-76498768D01*
X71443256Y-76556859D01*
X71383072Y-76600586D01*
X71383070Y-76600588D01*
X71383069Y-76600588D01*
X71260588Y-76723069D01*
X71260588Y-76723070D01*
X71260586Y-76723072D01*
X71216859Y-76783256D01*
X71158768Y-76863211D01*
X71080128Y-77017552D01*
X71026597Y-77182302D01*
X70999500Y-77353389D01*
X48600500Y-77353389D01*
X48573402Y-77182299D01*
X48519873Y-77017555D01*
X48441232Y-76863212D01*
X48339414Y-76723072D01*
X48216928Y-76600586D01*
X48076788Y-76498768D01*
X47922445Y-76420127D01*
X47757701Y-76366598D01*
X47757699Y-76366597D01*
X47757698Y-76366597D01*
X47626271Y-76345781D01*
X47586611Y-76339500D01*
X46613389Y-76339500D01*
X46573728Y-76345781D01*
X46442302Y-76366597D01*
X46277552Y-76420128D01*
X46123211Y-76498768D01*
X46043256Y-76556859D01*
X45983072Y-76600586D01*
X45983070Y-76600588D01*
X45983069Y-76600588D01*
X45860588Y-76723069D01*
X45860588Y-76723070D01*
X45860586Y-76723072D01*
X45816859Y-76783256D01*
X45758768Y-76863211D01*
X45680128Y-77017552D01*
X45626597Y-77182302D01*
X45599500Y-77353389D01*
X38500500Y-77353389D01*
X38500500Y-74813389D01*
X45599500Y-74813389D01*
X45599500Y-74986611D01*
X45626598Y-75157701D01*
X45680127Y-75322445D01*
X45758768Y-75476788D01*
X45860586Y-75616928D01*
X45983072Y-75739414D01*
X46123212Y-75841232D01*
X46277555Y-75919873D01*
X46442299Y-75973402D01*
X46613389Y-76000500D01*
X46613390Y-76000500D01*
X47586610Y-76000500D01*
X47586611Y-76000500D01*
X47757701Y-75973402D01*
X47922445Y-75919873D01*
X48076788Y-75841232D01*
X48216928Y-75739414D01*
X48339414Y-75616928D01*
X48441232Y-75476788D01*
X48519873Y-75322445D01*
X48573402Y-75157701D01*
X48600500Y-74986611D01*
X48600500Y-74813389D01*
X70999500Y-74813389D01*
X70999500Y-74986611D01*
X71026598Y-75157701D01*
X71080127Y-75322445D01*
X71158768Y-75476788D01*
X71260586Y-75616928D01*
X71383072Y-75739414D01*
X71523212Y-75841232D01*
X71677555Y-75919873D01*
X71842299Y-75973402D01*
X72013389Y-76000500D01*
X72013390Y-76000500D01*
X72986610Y-76000500D01*
X72986611Y-76000500D01*
X73157701Y-75973402D01*
X73322445Y-75919873D01*
X73476788Y-75841232D01*
X73616928Y-75739414D01*
X73739414Y-75616928D01*
X73841232Y-75476788D01*
X73919873Y-75322445D01*
X73973402Y-75157701D01*
X74000500Y-74986611D01*
X74000500Y-74813389D01*
X73997058Y-74791657D01*
X73985398Y-74718035D01*
X73973402Y-74642302D01*
X73973402Y-74642299D01*
X73919873Y-74477555D01*
X73841232Y-74323212D01*
X73739414Y-74183072D01*
X73616928Y-74060586D01*
X73476788Y-73958768D01*
X73322445Y-73880127D01*
X73157701Y-73826598D01*
X73157699Y-73826597D01*
X73157698Y-73826597D01*
X73026271Y-73805781D01*
X72986611Y-73799500D01*
X72013389Y-73799500D01*
X71973728Y-73805781D01*
X71842302Y-73826597D01*
X71677552Y-73880128D01*
X71523211Y-73958768D01*
X71443256Y-74016859D01*
X71383072Y-74060586D01*
X71383070Y-74060588D01*
X71383069Y-74060588D01*
X71260588Y-74183069D01*
X71260588Y-74183070D01*
X71260586Y-74183072D01*
X71216859Y-74243256D01*
X71158768Y-74323211D01*
X71080128Y-74477552D01*
X71026597Y-74642302D01*
X71009540Y-74750000D01*
X70999500Y-74813389D01*
X48600500Y-74813389D01*
X48573402Y-74642299D01*
X48519873Y-74477555D01*
X48441232Y-74323212D01*
X48339414Y-74183072D01*
X48216928Y-74060586D01*
X48076788Y-73958768D01*
X47922445Y-73880127D01*
X47757701Y-73826598D01*
X47757699Y-73826597D01*
X47757698Y-73826597D01*
X47626271Y-73805781D01*
X47586611Y-73799500D01*
X46613389Y-73799500D01*
X46573728Y-73805781D01*
X46442302Y-73826597D01*
X46277552Y-73880128D01*
X46123211Y-73958768D01*
X46043256Y-74016859D01*
X45983072Y-74060586D01*
X45983070Y-74060588D01*
X45983069Y-74060588D01*
X45860588Y-74183069D01*
X45860588Y-74183070D01*
X45860586Y-74183072D01*
X45816859Y-74243256D01*
X45758768Y-74323211D01*
X45680128Y-74477552D01*
X45626597Y-74642302D01*
X45609540Y-74750000D01*
X45599500Y-74813389D01*
X38500500Y-74813389D01*
X38500500Y-72273389D01*
X45599500Y-72273389D01*
X45599500Y-72446611D01*
X45626598Y-72617701D01*
X45680127Y-72782445D01*
X45758768Y-72936788D01*
X45860586Y-73076928D01*
X45983072Y-73199414D01*
X46123212Y-73301232D01*
X46277555Y-73379873D01*
X46442299Y-73433402D01*
X46613389Y-73460500D01*
X46613390Y-73460500D01*
X47586610Y-73460500D01*
X47586611Y-73460500D01*
X47757701Y-73433402D01*
X47922445Y-73379873D01*
X48076788Y-73301232D01*
X48216928Y-73199414D01*
X48339414Y-73076928D01*
X48441232Y-72936788D01*
X48519873Y-72782445D01*
X48573402Y-72617701D01*
X48600500Y-72446611D01*
X48600500Y-72273389D01*
X70999500Y-72273389D01*
X70999500Y-72446611D01*
X71026598Y-72617701D01*
X71080127Y-72782445D01*
X71158768Y-72936788D01*
X71260586Y-73076928D01*
X71383072Y-73199414D01*
X71523212Y-73301232D01*
X71677555Y-73379873D01*
X71842299Y-73433402D01*
X72013389Y-73460500D01*
X72013390Y-73460500D01*
X72986610Y-73460500D01*
X72986611Y-73460500D01*
X73157701Y-73433402D01*
X73322445Y-73379873D01*
X73476788Y-73301232D01*
X73616928Y-73199414D01*
X73739414Y-73076928D01*
X73841232Y-72936788D01*
X73919873Y-72782445D01*
X73973402Y-72617701D01*
X74000500Y-72446611D01*
X74000500Y-72273389D01*
X73973402Y-72102299D01*
X73919873Y-71937555D01*
X73841232Y-71783212D01*
X73739414Y-71643072D01*
X73616928Y-71520586D01*
X73476788Y-71418768D01*
X73322445Y-71340127D01*
X73157701Y-71286598D01*
X73157699Y-71286597D01*
X73157698Y-71286597D01*
X73026271Y-71265781D01*
X72986611Y-71259500D01*
X72013389Y-71259500D01*
X71973728Y-71265781D01*
X71842302Y-71286597D01*
X71677552Y-71340128D01*
X71523211Y-71418768D01*
X71443256Y-71476859D01*
X71383072Y-71520586D01*
X71383070Y-71520588D01*
X71383069Y-71520588D01*
X71260588Y-71643069D01*
X71260588Y-71643070D01*
X71260586Y-71643072D01*
X71216859Y-71703256D01*
X71158768Y-71783211D01*
X71080128Y-71937552D01*
X71026597Y-72102302D01*
X71025966Y-72106287D01*
X70999500Y-72273389D01*
X48600500Y-72273389D01*
X48573402Y-72102299D01*
X48519873Y-71937555D01*
X48441232Y-71783212D01*
X48339414Y-71643072D01*
X48216928Y-71520586D01*
X48076788Y-71418768D01*
X47922445Y-71340127D01*
X47757701Y-71286598D01*
X47757699Y-71286597D01*
X47757698Y-71286597D01*
X47626271Y-71265781D01*
X47586611Y-71259500D01*
X46613389Y-71259500D01*
X46573728Y-71265781D01*
X46442302Y-71286597D01*
X46277552Y-71340128D01*
X46123211Y-71418768D01*
X46043256Y-71476859D01*
X45983072Y-71520586D01*
X45983070Y-71520588D01*
X45983069Y-71520588D01*
X45860588Y-71643069D01*
X45860588Y-71643070D01*
X45860586Y-71643072D01*
X45816859Y-71703256D01*
X45758768Y-71783211D01*
X45680128Y-71937552D01*
X45626597Y-72102302D01*
X45625966Y-72106287D01*
X45599500Y-72273389D01*
X38500500Y-72273389D01*
X38500500Y-69733389D01*
X45599500Y-69733389D01*
X45599500Y-69906610D01*
X45617207Y-70018412D01*
X45626598Y-70077701D01*
X45680127Y-70242445D01*
X45758768Y-70396788D01*
X45860586Y-70536928D01*
X45983072Y-70659414D01*
X46123212Y-70761232D01*
X46277555Y-70839873D01*
X46442299Y-70893402D01*
X46613389Y-70920500D01*
X46613390Y-70920500D01*
X47586610Y-70920500D01*
X47586611Y-70920500D01*
X47757701Y-70893402D01*
X47922445Y-70839873D01*
X48076788Y-70761232D01*
X48216928Y-70659414D01*
X48339414Y-70536928D01*
X48441232Y-70396788D01*
X48519873Y-70242445D01*
X48573402Y-70077701D01*
X48600500Y-69906611D01*
X48600500Y-69733389D01*
X70999500Y-69733389D01*
X70999500Y-69906610D01*
X71017207Y-70018412D01*
X71026598Y-70077701D01*
X71080127Y-70242445D01*
X71158768Y-70396788D01*
X71260586Y-70536928D01*
X71383072Y-70659414D01*
X71523212Y-70761232D01*
X71677555Y-70839873D01*
X71842299Y-70893402D01*
X72013389Y-70920500D01*
X72013390Y-70920500D01*
X72986610Y-70920500D01*
X72986611Y-70920500D01*
X73157701Y-70893402D01*
X73322445Y-70839873D01*
X73476788Y-70761232D01*
X73616928Y-70659414D01*
X73739414Y-70536928D01*
X73841232Y-70396788D01*
X73919873Y-70242445D01*
X73973402Y-70077701D01*
X74000500Y-69906611D01*
X74000500Y-69733389D01*
X73973402Y-69562299D01*
X73919873Y-69397555D01*
X73841232Y-69243212D01*
X73739414Y-69103072D01*
X73616928Y-68980586D01*
X73476788Y-68878768D01*
X73322445Y-68800127D01*
X73157701Y-68746598D01*
X73157699Y-68746597D01*
X73157698Y-68746597D01*
X73026271Y-68725781D01*
X72986611Y-68719500D01*
X72013389Y-68719500D01*
X71973728Y-68725781D01*
X71842302Y-68746597D01*
X71677552Y-68800128D01*
X71523211Y-68878768D01*
X71443256Y-68936859D01*
X71383072Y-68980586D01*
X71383070Y-68980588D01*
X71383069Y-68980588D01*
X71260588Y-69103069D01*
X71260588Y-69103070D01*
X71260586Y-69103072D01*
X71216859Y-69163256D01*
X71158768Y-69243211D01*
X71080128Y-69397552D01*
X71026597Y-69562302D01*
X70999500Y-69733389D01*
X48600500Y-69733389D01*
X48573402Y-69562299D01*
X48519873Y-69397555D01*
X48441232Y-69243212D01*
X48339414Y-69103072D01*
X48216928Y-68980586D01*
X48076788Y-68878768D01*
X47922445Y-68800127D01*
X47757701Y-68746598D01*
X47757699Y-68746597D01*
X47757698Y-68746597D01*
X47626271Y-68725781D01*
X47586611Y-68719500D01*
X46613389Y-68719500D01*
X46573728Y-68725781D01*
X46442302Y-68746597D01*
X46277552Y-68800128D01*
X46123211Y-68878768D01*
X46043256Y-68936859D01*
X45983072Y-68980586D01*
X45983070Y-68980588D01*
X45983069Y-68980588D01*
X45860588Y-69103069D01*
X45860588Y-69103070D01*
X45860586Y-69103072D01*
X45816859Y-69163256D01*
X45758768Y-69243211D01*
X45680128Y-69397552D01*
X45626597Y-69562302D01*
X45599500Y-69733389D01*
X38500500Y-69733389D01*
X38500500Y-67193389D01*
X45599500Y-67193389D01*
X45599500Y-67366611D01*
X45626598Y-67537701D01*
X45680127Y-67702445D01*
X45758768Y-67856788D01*
X45860586Y-67996928D01*
X45983072Y-68119414D01*
X46123212Y-68221232D01*
X46277555Y-68299873D01*
X46442299Y-68353402D01*
X46613389Y-68380500D01*
X46613390Y-68380500D01*
X47586610Y-68380500D01*
X47586611Y-68380500D01*
X47757701Y-68353402D01*
X47922445Y-68299873D01*
X48076788Y-68221232D01*
X48216928Y-68119414D01*
X48339414Y-67996928D01*
X48441232Y-67856788D01*
X48519873Y-67702445D01*
X48573402Y-67537701D01*
X48600500Y-67366611D01*
X48600500Y-67193389D01*
X70999500Y-67193389D01*
X70999500Y-67366611D01*
X71026598Y-67537701D01*
X71080127Y-67702445D01*
X71158768Y-67856788D01*
X71260586Y-67996928D01*
X71383072Y-68119414D01*
X71523212Y-68221232D01*
X71677555Y-68299873D01*
X71842299Y-68353402D01*
X72013389Y-68380500D01*
X72013390Y-68380500D01*
X72986610Y-68380500D01*
X72986611Y-68380500D01*
X73157701Y-68353402D01*
X73322445Y-68299873D01*
X73476788Y-68221232D01*
X73616928Y-68119414D01*
X73739414Y-67996928D01*
X73841232Y-67856788D01*
X73919873Y-67702445D01*
X73973402Y-67537701D01*
X74000500Y-67366611D01*
X74000500Y-67193389D01*
X73973402Y-67022299D01*
X73931622Y-66893713D01*
X89524500Y-66893713D01*
X89524500Y-67106287D01*
X89557754Y-67316243D01*
X89574119Y-67366610D01*
X89623444Y-67518414D01*
X89719951Y-67707820D01*
X89844890Y-67879786D01*
X89995209Y-68030105D01*
X89995214Y-68030109D01*
X90159793Y-68149682D01*
X90202459Y-68205011D01*
X90208438Y-68274625D01*
X90175833Y-68336420D01*
X90159793Y-68350318D01*
X89995214Y-68469890D01*
X89995209Y-68469894D01*
X89844890Y-68620213D01*
X89719951Y-68792179D01*
X89623444Y-68981585D01*
X89557753Y-69183760D01*
X89548337Y-69243211D01*
X89524500Y-69393713D01*
X89524500Y-69606287D01*
X89557754Y-69816243D01*
X89587116Y-69906611D01*
X89623444Y-70018414D01*
X89719951Y-70207820D01*
X89844890Y-70379786D01*
X89995209Y-70530105D01*
X89995214Y-70530109D01*
X90159793Y-70649682D01*
X90202459Y-70705011D01*
X90208438Y-70774625D01*
X90175833Y-70836420D01*
X90159793Y-70850318D01*
X89995214Y-70969890D01*
X89995209Y-70969894D01*
X89844890Y-71120213D01*
X89719951Y-71292179D01*
X89623444Y-71481585D01*
X89557753Y-71683760D01*
X89524500Y-71893713D01*
X89524500Y-72106286D01*
X89550966Y-72273389D01*
X89557754Y-72316243D01*
X89600113Y-72446611D01*
X89623444Y-72518414D01*
X89719951Y-72707820D01*
X89844890Y-72879786D01*
X89984068Y-73018964D01*
X90017553Y-73080287D01*
X90012569Y-73149979D01*
X89970697Y-73205912D01*
X89961484Y-73212183D01*
X89806659Y-73307680D01*
X89806655Y-73307683D01*
X89682684Y-73431654D01*
X89590643Y-73580875D01*
X89590641Y-73580880D01*
X89535494Y-73747302D01*
X89535493Y-73747309D01*
X89525000Y-73850013D01*
X89525000Y-74250000D01*
X90595854Y-74250000D01*
X90557370Y-74316657D01*
X90525000Y-74437465D01*
X90525000Y-74562535D01*
X90557370Y-74683343D01*
X90595854Y-74750000D01*
X89525001Y-74750000D01*
X89525001Y-75149986D01*
X89535494Y-75252697D01*
X89590641Y-75419119D01*
X89590643Y-75419124D01*
X89682684Y-75568345D01*
X89806654Y-75692315D01*
X89955875Y-75784356D01*
X89955880Y-75784358D01*
X90122302Y-75839505D01*
X90122309Y-75839506D01*
X90225019Y-75849999D01*
X90749999Y-75849999D01*
X90750000Y-75849998D01*
X90750000Y-74904145D01*
X90816657Y-74942630D01*
X90937465Y-74975000D01*
X91062535Y-74975000D01*
X91183343Y-74942630D01*
X91250000Y-74904145D01*
X91250000Y-75849999D01*
X91774972Y-75849999D01*
X91774986Y-75849998D01*
X91877697Y-75839505D01*
X92044119Y-75784358D01*
X92044124Y-75784356D01*
X92193345Y-75692315D01*
X92317315Y-75568345D01*
X92409356Y-75419124D01*
X92409358Y-75419119D01*
X92464505Y-75252697D01*
X92464506Y-75252690D01*
X92474999Y-75149986D01*
X92475000Y-75149973D01*
X92475000Y-74750000D01*
X91404146Y-74750000D01*
X91442630Y-74683343D01*
X91475000Y-74562535D01*
X91475000Y-74437465D01*
X91442630Y-74316657D01*
X91404146Y-74250000D01*
X92474999Y-74250000D01*
X92474999Y-73850028D01*
X92474998Y-73850013D01*
X92464505Y-73747302D01*
X92409358Y-73580880D01*
X92409356Y-73580875D01*
X92317315Y-73431654D01*
X92193345Y-73307684D01*
X92038515Y-73212184D01*
X91991791Y-73160236D01*
X91980568Y-73091273D01*
X92008412Y-73027191D01*
X92015909Y-73018986D01*
X92155104Y-72879792D01*
X92280051Y-72707816D01*
X92376557Y-72518412D01*
X92442246Y-72316243D01*
X92475500Y-72106287D01*
X92475500Y-71893713D01*
X92442246Y-71683757D01*
X92376557Y-71481588D01*
X92280051Y-71292184D01*
X92280049Y-71292181D01*
X92280048Y-71292179D01*
X92155109Y-71120213D01*
X92004792Y-70969896D01*
X92004784Y-70969890D01*
X91840204Y-70850316D01*
X91797540Y-70794989D01*
X91791561Y-70725376D01*
X91824166Y-70663580D01*
X91840199Y-70649686D01*
X92004792Y-70530104D01*
X92155104Y-70379792D01*
X92155106Y-70379788D01*
X92155109Y-70379786D01*
X92280048Y-70207820D01*
X92280047Y-70207820D01*
X92280051Y-70207816D01*
X92376557Y-70018412D01*
X92442246Y-69816243D01*
X92475500Y-69606287D01*
X92475500Y-69393713D01*
X92442246Y-69183757D01*
X92376557Y-68981588D01*
X92280051Y-68792184D01*
X92280049Y-68792181D01*
X92280048Y-68792179D01*
X92155109Y-68620213D01*
X92004792Y-68469896D01*
X92004784Y-68469890D01*
X91840204Y-68350316D01*
X91797540Y-68294989D01*
X91791561Y-68225376D01*
X91824166Y-68163580D01*
X91840199Y-68149686D01*
X92004792Y-68030104D01*
X92155104Y-67879792D01*
X92155106Y-67879788D01*
X92155109Y-67879786D01*
X92280048Y-67707820D01*
X92280047Y-67707820D01*
X92280051Y-67707816D01*
X92376557Y-67518412D01*
X92442246Y-67316243D01*
X92475500Y-67106287D01*
X92475500Y-66893713D01*
X92442246Y-66683757D01*
X92376557Y-66481588D01*
X92280051Y-66292184D01*
X92280049Y-66292181D01*
X92280048Y-66292179D01*
X92155109Y-66120213D01*
X92004786Y-65969890D01*
X91832820Y-65844951D01*
X91643414Y-65748444D01*
X91643413Y-65748443D01*
X91643412Y-65748443D01*
X91441243Y-65682754D01*
X91441241Y-65682753D01*
X91441240Y-65682753D01*
X91279957Y-65657208D01*
X91231287Y-65649500D01*
X90768713Y-65649500D01*
X90720042Y-65657208D01*
X90558760Y-65682753D01*
X90356585Y-65748444D01*
X90167179Y-65844951D01*
X89995213Y-65969890D01*
X89844890Y-66120213D01*
X89719951Y-66292179D01*
X89623444Y-66481585D01*
X89557753Y-66683760D01*
X89530228Y-66857550D01*
X89524500Y-66893713D01*
X73931622Y-66893713D01*
X73919873Y-66857555D01*
X73919871Y-66857552D01*
X73919871Y-66857550D01*
X73841231Y-66703211D01*
X73827097Y-66683757D01*
X73739414Y-66563072D01*
X73616928Y-66440586D01*
X73476788Y-66338768D01*
X73322445Y-66260127D01*
X73157701Y-66206598D01*
X73157699Y-66206597D01*
X73157698Y-66206597D01*
X73026271Y-66185781D01*
X72986611Y-66179500D01*
X72013389Y-66179500D01*
X71973728Y-66185781D01*
X71842302Y-66206597D01*
X71677552Y-66260128D01*
X71523211Y-66338768D01*
X71443256Y-66396859D01*
X71383072Y-66440586D01*
X71383070Y-66440588D01*
X71383069Y-66440588D01*
X71260588Y-66563069D01*
X71260588Y-66563070D01*
X71260586Y-66563072D01*
X71216859Y-66623256D01*
X71158768Y-66703211D01*
X71080128Y-66857552D01*
X71026597Y-67022302D01*
X70999500Y-67193389D01*
X48600500Y-67193389D01*
X48573402Y-67022299D01*
X48519873Y-66857555D01*
X48441232Y-66703212D01*
X48339414Y-66563072D01*
X48216928Y-66440586D01*
X48076788Y-66338768D01*
X47922445Y-66260127D01*
X47757701Y-66206598D01*
X47757699Y-66206597D01*
X47757698Y-66206597D01*
X47626271Y-66185781D01*
X47586611Y-66179500D01*
X46613389Y-66179500D01*
X46573728Y-66185781D01*
X46442302Y-66206597D01*
X46277552Y-66260128D01*
X46123211Y-66338768D01*
X46043256Y-66396859D01*
X45983072Y-66440586D01*
X45983070Y-66440588D01*
X45983069Y-66440588D01*
X45860588Y-66563069D01*
X45860588Y-66563070D01*
X45860586Y-66563072D01*
X45816859Y-66623256D01*
X45758768Y-66703211D01*
X45680128Y-66857552D01*
X45626597Y-67022302D01*
X45599500Y-67193389D01*
X38500500Y-67193389D01*
X38500500Y-64489999D01*
X45625884Y-64489999D01*
X45625885Y-64490000D01*
X46784314Y-64490000D01*
X46779920Y-64494394D01*
X46727259Y-64585606D01*
X46700000Y-64687339D01*
X46700000Y-64792661D01*
X46727259Y-64894394D01*
X46779920Y-64985606D01*
X46784314Y-64990000D01*
X45625885Y-64990000D01*
X45627085Y-64997584D01*
X45680591Y-65162255D01*
X45759195Y-65316524D01*
X45860967Y-65456602D01*
X45983397Y-65579032D01*
X46123475Y-65680804D01*
X46277742Y-65759408D01*
X46442415Y-65812914D01*
X46613429Y-65840000D01*
X46850000Y-65840000D01*
X46850000Y-65055686D01*
X46854394Y-65060080D01*
X46945606Y-65112741D01*
X47047339Y-65140000D01*
X47152661Y-65140000D01*
X47254394Y-65112741D01*
X47345606Y-65060080D01*
X47350000Y-65055686D01*
X47350000Y-65840000D01*
X47586571Y-65840000D01*
X47757584Y-65812914D01*
X47922257Y-65759408D01*
X48076524Y-65680804D01*
X48216602Y-65579032D01*
X48339032Y-65456602D01*
X48440804Y-65316524D01*
X48519408Y-65162255D01*
X48572914Y-64997584D01*
X48574115Y-64990000D01*
X47415686Y-64990000D01*
X47420080Y-64985606D01*
X47472741Y-64894394D01*
X47500000Y-64792661D01*
X47500000Y-64687339D01*
X47490903Y-64653389D01*
X70999500Y-64653389D01*
X70999500Y-64826611D01*
X71026598Y-64997701D01*
X71080127Y-65162445D01*
X71158768Y-65316788D01*
X71260586Y-65456928D01*
X71383072Y-65579414D01*
X71523212Y-65681232D01*
X71677555Y-65759873D01*
X71842299Y-65813402D01*
X72013389Y-65840500D01*
X72013390Y-65840500D01*
X72986610Y-65840500D01*
X72986611Y-65840500D01*
X73157701Y-65813402D01*
X73322445Y-65759873D01*
X73476788Y-65681232D01*
X73616928Y-65579414D01*
X73739414Y-65456928D01*
X73841232Y-65316788D01*
X73919873Y-65162445D01*
X73973402Y-64997701D01*
X74000500Y-64826611D01*
X74000500Y-64653389D01*
X73973402Y-64482299D01*
X73919873Y-64317555D01*
X73841232Y-64163212D01*
X73739414Y-64023072D01*
X73616928Y-63900586D01*
X73476788Y-63798768D01*
X73322445Y-63720127D01*
X73157701Y-63666598D01*
X73157699Y-63666597D01*
X73157698Y-63666597D01*
X73026271Y-63645781D01*
X72986611Y-63639500D01*
X72013389Y-63639500D01*
X71973728Y-63645781D01*
X71842302Y-63666597D01*
X71677552Y-63720128D01*
X71523211Y-63798768D01*
X71443256Y-63856859D01*
X71383072Y-63900586D01*
X71383070Y-63900588D01*
X71383069Y-63900588D01*
X71260588Y-64023069D01*
X71260588Y-64023070D01*
X71260586Y-64023072D01*
X71260350Y-64023397D01*
X71158768Y-64163211D01*
X71080128Y-64317552D01*
X71026597Y-64482302D01*
X71025378Y-64489999D01*
X70999500Y-64653389D01*
X47490903Y-64653389D01*
X47472741Y-64585606D01*
X47420080Y-64494394D01*
X47415686Y-64490000D01*
X48574115Y-64490000D01*
X48574115Y-64489999D01*
X48572914Y-64482415D01*
X48519408Y-64317744D01*
X48440804Y-64163475D01*
X48339032Y-64023397D01*
X48216602Y-63900967D01*
X48076524Y-63799195D01*
X47922257Y-63720591D01*
X47757584Y-63667085D01*
X47586571Y-63640000D01*
X47350000Y-63640000D01*
X47350000Y-64424314D01*
X47345606Y-64419920D01*
X47254394Y-64367259D01*
X47152661Y-64340000D01*
X47047339Y-64340000D01*
X46945606Y-64367259D01*
X46854394Y-64419920D01*
X46850000Y-64424314D01*
X46850000Y-63640000D01*
X46613429Y-63640000D01*
X46442415Y-63667085D01*
X46277742Y-63720591D01*
X46123475Y-63799195D01*
X45983397Y-63900967D01*
X45860967Y-64023397D01*
X45759195Y-64163475D01*
X45680591Y-64317744D01*
X45627085Y-64482415D01*
X45625884Y-64489999D01*
X38500500Y-64489999D01*
X38500500Y-62113389D01*
X45599500Y-62113389D01*
X45599500Y-62286611D01*
X45626598Y-62457701D01*
X45680127Y-62622445D01*
X45758768Y-62776788D01*
X45860586Y-62916928D01*
X45983072Y-63039414D01*
X46123212Y-63141232D01*
X46277555Y-63219873D01*
X46442299Y-63273402D01*
X46613389Y-63300500D01*
X46613390Y-63300500D01*
X47586610Y-63300500D01*
X47586611Y-63300500D01*
X47757701Y-63273402D01*
X47922445Y-63219873D01*
X48076788Y-63141232D01*
X48216928Y-63039414D01*
X48339414Y-62916928D01*
X48441232Y-62776788D01*
X48519873Y-62622445D01*
X48573402Y-62457701D01*
X48600500Y-62286611D01*
X48600500Y-62113389D01*
X70999500Y-62113389D01*
X70999500Y-62286611D01*
X71026598Y-62457701D01*
X71080127Y-62622445D01*
X71158768Y-62776788D01*
X71260586Y-62916928D01*
X71383072Y-63039414D01*
X71523212Y-63141232D01*
X71677555Y-63219873D01*
X71842299Y-63273402D01*
X72013389Y-63300500D01*
X72013390Y-63300500D01*
X72986610Y-63300500D01*
X72986611Y-63300500D01*
X73157701Y-63273402D01*
X73322445Y-63219873D01*
X73476788Y-63141232D01*
X73616928Y-63039414D01*
X73739414Y-62916928D01*
X73841232Y-62776788D01*
X73919873Y-62622445D01*
X73973402Y-62457701D01*
X74000500Y-62286611D01*
X74000500Y-62113389D01*
X73973402Y-61942299D01*
X73919873Y-61777555D01*
X73841232Y-61623212D01*
X73739414Y-61483072D01*
X73616928Y-61360586D01*
X73476788Y-61258768D01*
X73322445Y-61180127D01*
X73157701Y-61126598D01*
X73157699Y-61126597D01*
X73157698Y-61126597D01*
X73026271Y-61105781D01*
X72986611Y-61099500D01*
X72013389Y-61099500D01*
X71973728Y-61105781D01*
X71842302Y-61126597D01*
X71677552Y-61180128D01*
X71523211Y-61258768D01*
X71443256Y-61316859D01*
X71383072Y-61360586D01*
X71383070Y-61360588D01*
X71383069Y-61360588D01*
X71260588Y-61483069D01*
X71260588Y-61483070D01*
X71260586Y-61483072D01*
X71216859Y-61543256D01*
X71158768Y-61623211D01*
X71080128Y-61777552D01*
X71026597Y-61942302D01*
X70999500Y-62113389D01*
X48600500Y-62113389D01*
X48573402Y-61942299D01*
X48519873Y-61777555D01*
X48441232Y-61623212D01*
X48339414Y-61483072D01*
X48216928Y-61360586D01*
X48076788Y-61258768D01*
X47922445Y-61180127D01*
X47757701Y-61126598D01*
X47757699Y-61126597D01*
X47757698Y-61126597D01*
X47626271Y-61105781D01*
X47586611Y-61099500D01*
X46613389Y-61099500D01*
X46573728Y-61105781D01*
X46442302Y-61126597D01*
X46277552Y-61180128D01*
X46123211Y-61258768D01*
X46043256Y-61316859D01*
X45983072Y-61360586D01*
X45983070Y-61360588D01*
X45983069Y-61360588D01*
X45860588Y-61483069D01*
X45860588Y-61483070D01*
X45860586Y-61483072D01*
X45816859Y-61543256D01*
X45758768Y-61623211D01*
X45680128Y-61777552D01*
X45626597Y-61942302D01*
X45599500Y-62113389D01*
X38500500Y-62113389D01*
X38500500Y-59573389D01*
X45599500Y-59573389D01*
X45599500Y-59746611D01*
X45626598Y-59917701D01*
X45680127Y-60082445D01*
X45758768Y-60236788D01*
X45860586Y-60376928D01*
X45983072Y-60499414D01*
X46123212Y-60601232D01*
X46277555Y-60679873D01*
X46442299Y-60733402D01*
X46613389Y-60760500D01*
X46613390Y-60760500D01*
X47586610Y-60760500D01*
X47586611Y-60760500D01*
X47757701Y-60733402D01*
X47922445Y-60679873D01*
X48076788Y-60601232D01*
X48216928Y-60499414D01*
X48339414Y-60376928D01*
X48441232Y-60236788D01*
X48519873Y-60082445D01*
X48573402Y-59917701D01*
X48600500Y-59746611D01*
X48600500Y-59573389D01*
X70999500Y-59573389D01*
X70999500Y-59746611D01*
X71026598Y-59917701D01*
X71080127Y-60082445D01*
X71158768Y-60236788D01*
X71260586Y-60376928D01*
X71383072Y-60499414D01*
X71523212Y-60601232D01*
X71677555Y-60679873D01*
X71842299Y-60733402D01*
X72013389Y-60760500D01*
X72013390Y-60760500D01*
X72986610Y-60760500D01*
X72986611Y-60760500D01*
X73157701Y-60733402D01*
X73322445Y-60679873D01*
X73476788Y-60601232D01*
X73616928Y-60499414D01*
X73739414Y-60376928D01*
X73841232Y-60236788D01*
X73919873Y-60082445D01*
X73973402Y-59917701D01*
X74000500Y-59746611D01*
X74000500Y-59573389D01*
X73995474Y-59541657D01*
X73983814Y-59468035D01*
X73973402Y-59402302D01*
X73973402Y-59402299D01*
X73919873Y-59237555D01*
X73841232Y-59083212D01*
X73739414Y-58943072D01*
X73616928Y-58820586D01*
X73476788Y-58718768D01*
X73322445Y-58640127D01*
X73157701Y-58586598D01*
X73157699Y-58586597D01*
X73157698Y-58586597D01*
X73026271Y-58565781D01*
X72986611Y-58559500D01*
X72013389Y-58559500D01*
X71973728Y-58565781D01*
X71842302Y-58586597D01*
X71677552Y-58640128D01*
X71523211Y-58718768D01*
X71445816Y-58775000D01*
X71383072Y-58820586D01*
X71383070Y-58820588D01*
X71383069Y-58820588D01*
X71260588Y-58943069D01*
X71260588Y-58943070D01*
X71260586Y-58943072D01*
X71249491Y-58958343D01*
X71158768Y-59083211D01*
X71080128Y-59237552D01*
X71026597Y-59402302D01*
X71004526Y-59541657D01*
X70999500Y-59573389D01*
X48600500Y-59573389D01*
X48573402Y-59402299D01*
X48519873Y-59237555D01*
X48441232Y-59083212D01*
X48339414Y-58943072D01*
X48216928Y-58820586D01*
X48076788Y-58718768D01*
X47922445Y-58640127D01*
X47757701Y-58586598D01*
X47757699Y-58586597D01*
X47757698Y-58586597D01*
X47626271Y-58565781D01*
X47586611Y-58559500D01*
X46613389Y-58559500D01*
X46573728Y-58565781D01*
X46442302Y-58586597D01*
X46277552Y-58640128D01*
X46123211Y-58718768D01*
X46045816Y-58775000D01*
X45983072Y-58820586D01*
X45983070Y-58820588D01*
X45983069Y-58820588D01*
X45860588Y-58943069D01*
X45860588Y-58943070D01*
X45860586Y-58943072D01*
X45849491Y-58958343D01*
X45758768Y-59083211D01*
X45680128Y-59237552D01*
X45626597Y-59402302D01*
X45604526Y-59541657D01*
X45599500Y-59573389D01*
X38500500Y-59573389D01*
X38500500Y-57033389D01*
X45599500Y-57033389D01*
X45599500Y-57206611D01*
X45626598Y-57377701D01*
X45680127Y-57542445D01*
X45758768Y-57696788D01*
X45860586Y-57836928D01*
X45983072Y-57959414D01*
X46123212Y-58061232D01*
X46277555Y-58139873D01*
X46442299Y-58193402D01*
X46613389Y-58220500D01*
X46613390Y-58220500D01*
X47586610Y-58220500D01*
X47586611Y-58220500D01*
X47757701Y-58193402D01*
X47922445Y-58139873D01*
X48076788Y-58061232D01*
X48216928Y-57959414D01*
X48339414Y-57836928D01*
X48441232Y-57696788D01*
X48519873Y-57542445D01*
X48573402Y-57377701D01*
X48600500Y-57206611D01*
X48600500Y-57033389D01*
X70999500Y-57033389D01*
X70999500Y-57206611D01*
X71026598Y-57377701D01*
X71080127Y-57542445D01*
X71158768Y-57696788D01*
X71260586Y-57836928D01*
X71383072Y-57959414D01*
X71523212Y-58061232D01*
X71677555Y-58139873D01*
X71842299Y-58193402D01*
X72013389Y-58220500D01*
X72013390Y-58220500D01*
X72986610Y-58220500D01*
X72986611Y-58220500D01*
X73157701Y-58193402D01*
X73322445Y-58139873D01*
X73476788Y-58061232D01*
X73616928Y-57959414D01*
X73739414Y-57836928D01*
X73841232Y-57696788D01*
X73919873Y-57542445D01*
X73973402Y-57377701D01*
X74000500Y-57206611D01*
X74000500Y-57033389D01*
X73973402Y-56862299D01*
X73919873Y-56697555D01*
X73841232Y-56543212D01*
X73739414Y-56403072D01*
X73616928Y-56280586D01*
X73476788Y-56178768D01*
X73322445Y-56100127D01*
X73157701Y-56046598D01*
X73157699Y-56046597D01*
X73157698Y-56046597D01*
X73026271Y-56025781D01*
X72986611Y-56019500D01*
X72013389Y-56019500D01*
X71973728Y-56025781D01*
X71842302Y-56046597D01*
X71677552Y-56100128D01*
X71523211Y-56178768D01*
X71450516Y-56231585D01*
X71383072Y-56280586D01*
X71383070Y-56280588D01*
X71383069Y-56280588D01*
X71260588Y-56403069D01*
X71260588Y-56403070D01*
X71260586Y-56403072D01*
X71238292Y-56433757D01*
X71158768Y-56543211D01*
X71080128Y-56697552D01*
X71026597Y-56862302D01*
X70999500Y-57033389D01*
X48600500Y-57033389D01*
X48573402Y-56862299D01*
X48519873Y-56697555D01*
X48441232Y-56543212D01*
X48339414Y-56403072D01*
X48216928Y-56280586D01*
X48076788Y-56178768D01*
X47922445Y-56100127D01*
X47757701Y-56046598D01*
X47757699Y-56046597D01*
X47757698Y-56046597D01*
X47626271Y-56025781D01*
X47586611Y-56019500D01*
X46613389Y-56019500D01*
X46573728Y-56025781D01*
X46442302Y-56046597D01*
X46277552Y-56100128D01*
X46123211Y-56178768D01*
X46050516Y-56231585D01*
X45983072Y-56280586D01*
X45983070Y-56280588D01*
X45983069Y-56280588D01*
X45860588Y-56403069D01*
X45860588Y-56403070D01*
X45860586Y-56403072D01*
X45838292Y-56433757D01*
X45758768Y-56543211D01*
X45680128Y-56697552D01*
X45626597Y-56862302D01*
X45599500Y-57033389D01*
X38500500Y-57033389D01*
X38500500Y-54493389D01*
X45599500Y-54493389D01*
X45599500Y-54666611D01*
X45626598Y-54837701D01*
X45680127Y-55002445D01*
X45758768Y-55156788D01*
X45860586Y-55296928D01*
X45983072Y-55419414D01*
X46123212Y-55521232D01*
X46277555Y-55599873D01*
X46442299Y-55653402D01*
X46613389Y-55680500D01*
X46613390Y-55680500D01*
X47586610Y-55680500D01*
X47586611Y-55680500D01*
X47757701Y-55653402D01*
X47922445Y-55599873D01*
X48076788Y-55521232D01*
X48216928Y-55419414D01*
X48339414Y-55296928D01*
X48441232Y-55156788D01*
X48519873Y-55002445D01*
X48573402Y-54837701D01*
X48600500Y-54666611D01*
X48600500Y-54493389D01*
X70999500Y-54493389D01*
X70999500Y-54666611D01*
X71026598Y-54837701D01*
X71080127Y-55002445D01*
X71158768Y-55156788D01*
X71260586Y-55296928D01*
X71383072Y-55419414D01*
X71523212Y-55521232D01*
X71677555Y-55599873D01*
X71842299Y-55653402D01*
X72013389Y-55680500D01*
X72013390Y-55680500D01*
X72986610Y-55680500D01*
X72986611Y-55680500D01*
X73157701Y-55653402D01*
X73322445Y-55599873D01*
X73476788Y-55521232D01*
X73616928Y-55419414D01*
X73739414Y-55296928D01*
X73841232Y-55156788D01*
X73919873Y-55002445D01*
X73973402Y-54837701D01*
X74000500Y-54666611D01*
X74000500Y-54493389D01*
X73973402Y-54322299D01*
X73919873Y-54157555D01*
X73841232Y-54003212D01*
X73739414Y-53863072D01*
X73616928Y-53740586D01*
X73476788Y-53638768D01*
X73322445Y-53560127D01*
X73157701Y-53506598D01*
X73157699Y-53506597D01*
X73157698Y-53506597D01*
X73026271Y-53485781D01*
X72986611Y-53479500D01*
X72013389Y-53479500D01*
X71973728Y-53485781D01*
X71842302Y-53506597D01*
X71677552Y-53560128D01*
X71523211Y-53638768D01*
X71443256Y-53696859D01*
X71383072Y-53740586D01*
X71383070Y-53740588D01*
X71383069Y-53740588D01*
X71260588Y-53863069D01*
X71260588Y-53863070D01*
X71260586Y-53863072D01*
X71216859Y-53923256D01*
X71158768Y-54003211D01*
X71080128Y-54157552D01*
X71026597Y-54322302D01*
X70999500Y-54493389D01*
X48600500Y-54493389D01*
X48573402Y-54322299D01*
X48519873Y-54157555D01*
X48441232Y-54003212D01*
X48339414Y-53863072D01*
X48216928Y-53740586D01*
X48076788Y-53638768D01*
X47922445Y-53560127D01*
X47757701Y-53506598D01*
X47757699Y-53506597D01*
X47757698Y-53506597D01*
X47626271Y-53485781D01*
X47586611Y-53479500D01*
X46613389Y-53479500D01*
X46573728Y-53485781D01*
X46442302Y-53506597D01*
X46277552Y-53560128D01*
X46123211Y-53638768D01*
X46043256Y-53696859D01*
X45983072Y-53740586D01*
X45983070Y-53740588D01*
X45983069Y-53740588D01*
X45860588Y-53863069D01*
X45860588Y-53863070D01*
X45860586Y-53863072D01*
X45816859Y-53923256D01*
X45758768Y-54003211D01*
X45680128Y-54157552D01*
X45626597Y-54322302D01*
X45599500Y-54493389D01*
X38500500Y-54493389D01*
X38500500Y-51953389D01*
X45599500Y-51953389D01*
X45599500Y-52126611D01*
X45626598Y-52297701D01*
X45680127Y-52462445D01*
X45758768Y-52616788D01*
X45860586Y-52756928D01*
X45983072Y-52879414D01*
X46123212Y-52981232D01*
X46277555Y-53059873D01*
X46442299Y-53113402D01*
X46613389Y-53140500D01*
X46613390Y-53140500D01*
X47586610Y-53140500D01*
X47586611Y-53140500D01*
X47757701Y-53113402D01*
X47922445Y-53059873D01*
X48076788Y-52981232D01*
X48216928Y-52879414D01*
X48339414Y-52756928D01*
X48441232Y-52616788D01*
X48519873Y-52462445D01*
X48573402Y-52297701D01*
X48600500Y-52126611D01*
X48600500Y-51953389D01*
X70999500Y-51953389D01*
X70999500Y-52126611D01*
X71026598Y-52297701D01*
X71080127Y-52462445D01*
X71158768Y-52616788D01*
X71260586Y-52756928D01*
X71383072Y-52879414D01*
X71523212Y-52981232D01*
X71677555Y-53059873D01*
X71842299Y-53113402D01*
X72013389Y-53140500D01*
X72013390Y-53140500D01*
X72986610Y-53140500D01*
X72986611Y-53140500D01*
X73157701Y-53113402D01*
X73322445Y-53059873D01*
X73476788Y-52981232D01*
X73616928Y-52879414D01*
X73739414Y-52756928D01*
X73841232Y-52616788D01*
X73919873Y-52462445D01*
X73973402Y-52297701D01*
X74000500Y-52126611D01*
X74000500Y-51953389D01*
X73973402Y-51782299D01*
X73928372Y-51643713D01*
X89579500Y-51643713D01*
X89579500Y-51856286D01*
X89612753Y-52066239D01*
X89678444Y-52268414D01*
X89774951Y-52457820D01*
X89899890Y-52629786D01*
X90050209Y-52780105D01*
X90050214Y-52780109D01*
X90214793Y-52899682D01*
X90257459Y-52955011D01*
X90263438Y-53024625D01*
X90230833Y-53086420D01*
X90214793Y-53100318D01*
X90050214Y-53219890D01*
X90050209Y-53219894D01*
X89899890Y-53370213D01*
X89774951Y-53542179D01*
X89678444Y-53731585D01*
X89612753Y-53933760D01*
X89601753Y-54003211D01*
X89579500Y-54143713D01*
X89579500Y-54356287D01*
X89612754Y-54566243D01*
X89645365Y-54666610D01*
X89678444Y-54768414D01*
X89774951Y-54957820D01*
X89899890Y-55129786D01*
X90050209Y-55280105D01*
X90050214Y-55280109D01*
X90214793Y-55399682D01*
X90257459Y-55455011D01*
X90263438Y-55524625D01*
X90230833Y-55586420D01*
X90214793Y-55600318D01*
X90050214Y-55719890D01*
X90050209Y-55719894D01*
X89899890Y-55870213D01*
X89774951Y-56042179D01*
X89678444Y-56231585D01*
X89612753Y-56433760D01*
X89595418Y-56543211D01*
X89579500Y-56643713D01*
X89579500Y-56856287D01*
X89612754Y-57066243D01*
X89658362Y-57206610D01*
X89678444Y-57268414D01*
X89774951Y-57457820D01*
X89899890Y-57629786D01*
X90039068Y-57768964D01*
X90072553Y-57830287D01*
X90067569Y-57899979D01*
X90025697Y-57955912D01*
X90016484Y-57962183D01*
X89861659Y-58057680D01*
X89861655Y-58057683D01*
X89737684Y-58181654D01*
X89645643Y-58330875D01*
X89645641Y-58330880D01*
X89590494Y-58497302D01*
X89590493Y-58497309D01*
X89580000Y-58600013D01*
X89580000Y-59000000D01*
X90650854Y-59000000D01*
X90612370Y-59066657D01*
X90580000Y-59187465D01*
X90580000Y-59312535D01*
X90612370Y-59433343D01*
X90650854Y-59500000D01*
X89580001Y-59500000D01*
X89580001Y-59899986D01*
X89590494Y-60002697D01*
X89645641Y-60169119D01*
X89645643Y-60169124D01*
X89737684Y-60318345D01*
X89861654Y-60442315D01*
X90010875Y-60534356D01*
X90010880Y-60534358D01*
X90177302Y-60589505D01*
X90177309Y-60589506D01*
X90280019Y-60599999D01*
X90804999Y-60599999D01*
X90805000Y-60599998D01*
X90805000Y-59654145D01*
X90871657Y-59692630D01*
X90992465Y-59725000D01*
X91117535Y-59725000D01*
X91238343Y-59692630D01*
X91305000Y-59654145D01*
X91305000Y-60599999D01*
X91829972Y-60599999D01*
X91829986Y-60599998D01*
X91932697Y-60589505D01*
X92099119Y-60534358D01*
X92099124Y-60534356D01*
X92248345Y-60442315D01*
X92372315Y-60318345D01*
X92464356Y-60169124D01*
X92464358Y-60169119D01*
X92519505Y-60002697D01*
X92519506Y-60002690D01*
X92529999Y-59899986D01*
X92530000Y-59899973D01*
X92530000Y-59500000D01*
X91459146Y-59500000D01*
X91497630Y-59433343D01*
X91530000Y-59312535D01*
X91530000Y-59187465D01*
X91497630Y-59066657D01*
X91459146Y-59000000D01*
X92529999Y-59000000D01*
X92529999Y-58600028D01*
X92529998Y-58600013D01*
X92519505Y-58497302D01*
X92464358Y-58330880D01*
X92464356Y-58330875D01*
X92372315Y-58181654D01*
X92248345Y-58057684D01*
X92093515Y-57962184D01*
X92046791Y-57910236D01*
X92035568Y-57841273D01*
X92063412Y-57777191D01*
X92070909Y-57768986D01*
X92210104Y-57629792D01*
X92335051Y-57457816D01*
X92431557Y-57268412D01*
X92497246Y-57066243D01*
X92530500Y-56856287D01*
X92530500Y-56643713D01*
X92497246Y-56433757D01*
X92431557Y-56231588D01*
X92335051Y-56042184D01*
X92335049Y-56042181D01*
X92335048Y-56042179D01*
X92210109Y-55870213D01*
X92059792Y-55719896D01*
X92059784Y-55719890D01*
X91895204Y-55600316D01*
X91852540Y-55544989D01*
X91846561Y-55475376D01*
X91879166Y-55413580D01*
X91895199Y-55399686D01*
X92059792Y-55280104D01*
X92210104Y-55129792D01*
X92210106Y-55129788D01*
X92210109Y-55129786D01*
X92335048Y-54957820D01*
X92335047Y-54957820D01*
X92335051Y-54957816D01*
X92431557Y-54768412D01*
X92497246Y-54566243D01*
X92530500Y-54356287D01*
X92530500Y-54143713D01*
X92497246Y-53933757D01*
X92431557Y-53731588D01*
X92335051Y-53542184D01*
X92335049Y-53542181D01*
X92335048Y-53542179D01*
X92210109Y-53370213D01*
X92059792Y-53219896D01*
X92059784Y-53219890D01*
X91895204Y-53100316D01*
X91852540Y-53044989D01*
X91846561Y-52975376D01*
X91879166Y-52913580D01*
X91895199Y-52899686D01*
X92059792Y-52780104D01*
X92210104Y-52629792D01*
X92210106Y-52629788D01*
X92210109Y-52629786D01*
X92335048Y-52457820D01*
X92335047Y-52457820D01*
X92335051Y-52457816D01*
X92431557Y-52268412D01*
X92497246Y-52066243D01*
X92530500Y-51856287D01*
X92530500Y-51643713D01*
X92497246Y-51433757D01*
X92431557Y-51231588D01*
X92335051Y-51042184D01*
X92335049Y-51042181D01*
X92335048Y-51042179D01*
X92210109Y-50870213D01*
X92059786Y-50719890D01*
X91887820Y-50594951D01*
X91698414Y-50498444D01*
X91698413Y-50498443D01*
X91698412Y-50498443D01*
X91496243Y-50432754D01*
X91496241Y-50432753D01*
X91496240Y-50432753D01*
X91334957Y-50407208D01*
X91286287Y-50399500D01*
X90823713Y-50399500D01*
X90775042Y-50407208D01*
X90613760Y-50432753D01*
X90411585Y-50498444D01*
X90222179Y-50594951D01*
X90050213Y-50719890D01*
X89899890Y-50870213D01*
X89774951Y-51042179D01*
X89678444Y-51231585D01*
X89612753Y-51433760D01*
X89579500Y-51643713D01*
X73928372Y-51643713D01*
X73919873Y-51617555D01*
X73841232Y-51463212D01*
X73739414Y-51323072D01*
X73616928Y-51200586D01*
X73476788Y-51098768D01*
X73322445Y-51020127D01*
X73157701Y-50966598D01*
X73157699Y-50966597D01*
X73157698Y-50966597D01*
X73026271Y-50945781D01*
X72986611Y-50939500D01*
X72013389Y-50939500D01*
X71973728Y-50945781D01*
X71842302Y-50966597D01*
X71677552Y-51020128D01*
X71523211Y-51098768D01*
X71443256Y-51156859D01*
X71383072Y-51200586D01*
X71383070Y-51200588D01*
X71383069Y-51200588D01*
X71260588Y-51323069D01*
X71260588Y-51323070D01*
X71260586Y-51323072D01*
X71216859Y-51383256D01*
X71158768Y-51463211D01*
X71080128Y-51617552D01*
X71026597Y-51782302D01*
X71014879Y-51856287D01*
X70999500Y-51953389D01*
X48600500Y-51953389D01*
X48573402Y-51782299D01*
X48519873Y-51617555D01*
X48441232Y-51463212D01*
X48339414Y-51323072D01*
X48216928Y-51200586D01*
X48076788Y-51098768D01*
X47922445Y-51020127D01*
X47757701Y-50966598D01*
X47757699Y-50966597D01*
X47757698Y-50966597D01*
X47626271Y-50945781D01*
X47586611Y-50939500D01*
X46613389Y-50939500D01*
X46573728Y-50945781D01*
X46442302Y-50966597D01*
X46277552Y-51020128D01*
X46123211Y-51098768D01*
X46043256Y-51156859D01*
X45983072Y-51200586D01*
X45983070Y-51200588D01*
X45983069Y-51200588D01*
X45860588Y-51323069D01*
X45860588Y-51323070D01*
X45860586Y-51323072D01*
X45816859Y-51383256D01*
X45758768Y-51463211D01*
X45680128Y-51617552D01*
X45626597Y-51782302D01*
X45614879Y-51856287D01*
X45599500Y-51953389D01*
X38500500Y-51953389D01*
X38500500Y-49413389D01*
X45599500Y-49413389D01*
X45599500Y-49586611D01*
X45626598Y-49757701D01*
X45680127Y-49922445D01*
X45758768Y-50076788D01*
X45860586Y-50216928D01*
X45983072Y-50339414D01*
X46123212Y-50441232D01*
X46277555Y-50519873D01*
X46442299Y-50573402D01*
X46613389Y-50600500D01*
X46613390Y-50600500D01*
X47586610Y-50600500D01*
X47586611Y-50600500D01*
X47757701Y-50573402D01*
X47922445Y-50519873D01*
X48076788Y-50441232D01*
X48216928Y-50339414D01*
X48339414Y-50216928D01*
X48441232Y-50076788D01*
X48519873Y-49922445D01*
X48573402Y-49757701D01*
X48600500Y-49586611D01*
X48600500Y-49413389D01*
X70999500Y-49413389D01*
X70999500Y-49586611D01*
X71026598Y-49757701D01*
X71080127Y-49922445D01*
X71158768Y-50076788D01*
X71260586Y-50216928D01*
X71383072Y-50339414D01*
X71523212Y-50441232D01*
X71677555Y-50519873D01*
X71842299Y-50573402D01*
X72013389Y-50600500D01*
X72013390Y-50600500D01*
X72986610Y-50600500D01*
X72986611Y-50600500D01*
X73157701Y-50573402D01*
X73322445Y-50519873D01*
X73476788Y-50441232D01*
X73616928Y-50339414D01*
X73739414Y-50216928D01*
X73841232Y-50076788D01*
X73919873Y-49922445D01*
X73973402Y-49757701D01*
X74000500Y-49586611D01*
X74000500Y-49413389D01*
X73973402Y-49242299D01*
X73919873Y-49077555D01*
X73841232Y-48923212D01*
X73739414Y-48783072D01*
X73616928Y-48660586D01*
X73476788Y-48558768D01*
X73322445Y-48480127D01*
X73157701Y-48426598D01*
X73157699Y-48426597D01*
X73157698Y-48426597D01*
X73026271Y-48405781D01*
X72986611Y-48399500D01*
X72013389Y-48399500D01*
X71973728Y-48405781D01*
X71842302Y-48426597D01*
X71677552Y-48480128D01*
X71523211Y-48558768D01*
X71443256Y-48616859D01*
X71383072Y-48660586D01*
X71383070Y-48660588D01*
X71383069Y-48660588D01*
X71260588Y-48783069D01*
X71260588Y-48783070D01*
X71260586Y-48783072D01*
X71216859Y-48843256D01*
X71158768Y-48923211D01*
X71080128Y-49077552D01*
X71026597Y-49242302D01*
X70999500Y-49413389D01*
X48600500Y-49413389D01*
X48573402Y-49242299D01*
X48519873Y-49077555D01*
X48441232Y-48923212D01*
X48339414Y-48783072D01*
X48216928Y-48660586D01*
X48076788Y-48558768D01*
X47922445Y-48480127D01*
X47757701Y-48426598D01*
X47757699Y-48426597D01*
X47757698Y-48426597D01*
X47626271Y-48405781D01*
X47586611Y-48399500D01*
X46613389Y-48399500D01*
X46573728Y-48405781D01*
X46442302Y-48426597D01*
X46277552Y-48480128D01*
X46123211Y-48558768D01*
X46043256Y-48616859D01*
X45983072Y-48660586D01*
X45983070Y-48660588D01*
X45983069Y-48660588D01*
X45860588Y-48783069D01*
X45860588Y-48783070D01*
X45860586Y-48783072D01*
X45816859Y-48843256D01*
X45758768Y-48923211D01*
X45680128Y-49077552D01*
X45626597Y-49242302D01*
X45599500Y-49413389D01*
X38500500Y-49413389D01*
X38500500Y-46873389D01*
X45599500Y-46873389D01*
X45599500Y-47046611D01*
X45626598Y-47217701D01*
X45680127Y-47382445D01*
X45758768Y-47536788D01*
X45860586Y-47676928D01*
X45983072Y-47799414D01*
X46123212Y-47901232D01*
X46277555Y-47979873D01*
X46442299Y-48033402D01*
X46613389Y-48060500D01*
X46613390Y-48060500D01*
X47586610Y-48060500D01*
X47586611Y-48060500D01*
X47757701Y-48033402D01*
X47922445Y-47979873D01*
X48076788Y-47901232D01*
X48216928Y-47799414D01*
X48339414Y-47676928D01*
X48441232Y-47536788D01*
X48519873Y-47382445D01*
X48573402Y-47217701D01*
X48600500Y-47046611D01*
X48600500Y-46873389D01*
X48600500Y-46873388D01*
X48583565Y-46766462D01*
X48583565Y-46766460D01*
X48576929Y-46724573D01*
X48574621Y-46709999D01*
X71025884Y-46709999D01*
X71025885Y-46710000D01*
X72184314Y-46710000D01*
X72179920Y-46714394D01*
X72127259Y-46805606D01*
X72100000Y-46907339D01*
X72100000Y-47012661D01*
X72127259Y-47114394D01*
X72179920Y-47205606D01*
X72184314Y-47210000D01*
X71025885Y-47210000D01*
X71027085Y-47217584D01*
X71080591Y-47382255D01*
X71159195Y-47536524D01*
X71260967Y-47676602D01*
X71383397Y-47799032D01*
X71523475Y-47900804D01*
X71677742Y-47979408D01*
X71842415Y-48032914D01*
X72013429Y-48060000D01*
X72250000Y-48060000D01*
X72250000Y-47275686D01*
X72254394Y-47280080D01*
X72345606Y-47332741D01*
X72447339Y-47360000D01*
X72552661Y-47360000D01*
X72654394Y-47332741D01*
X72745606Y-47280080D01*
X72750000Y-47275686D01*
X72750000Y-48060000D01*
X72986571Y-48060000D01*
X73157584Y-48032914D01*
X73322257Y-47979408D01*
X73476524Y-47900804D01*
X73616602Y-47799032D01*
X73739032Y-47676602D01*
X73840804Y-47536524D01*
X73919408Y-47382255D01*
X73972914Y-47217584D01*
X73974115Y-47210000D01*
X72815686Y-47210000D01*
X72820080Y-47205606D01*
X72872741Y-47114394D01*
X72900000Y-47012661D01*
X72900000Y-46907339D01*
X72872741Y-46805606D01*
X72820080Y-46714394D01*
X72815686Y-46710000D01*
X73974115Y-46710000D01*
X73974115Y-46709999D01*
X73972914Y-46702415D01*
X73919408Y-46537744D01*
X73840804Y-46383475D01*
X73739032Y-46243397D01*
X73616602Y-46120967D01*
X73476524Y-46019195D01*
X73322257Y-45940591D01*
X73157584Y-45887085D01*
X72986571Y-45860000D01*
X72750000Y-45860000D01*
X72750000Y-46644314D01*
X72745606Y-46639920D01*
X72654394Y-46587259D01*
X72552661Y-46560000D01*
X72447339Y-46560000D01*
X72345606Y-46587259D01*
X72254394Y-46639920D01*
X72250000Y-46644314D01*
X72250000Y-45860000D01*
X72013429Y-45860000D01*
X71842415Y-45887085D01*
X71677742Y-45940591D01*
X71523475Y-46019195D01*
X71383397Y-46120967D01*
X71260967Y-46243397D01*
X71159195Y-46383475D01*
X71080591Y-46537744D01*
X71027085Y-46702415D01*
X71025884Y-46709999D01*
X48574621Y-46709999D01*
X48573402Y-46702299D01*
X48519873Y-46537555D01*
X48441232Y-46383212D01*
X48339414Y-46243072D01*
X48216928Y-46120586D01*
X48076788Y-46018768D01*
X47922445Y-45940127D01*
X47757701Y-45886598D01*
X47757699Y-45886597D01*
X47757698Y-45886597D01*
X47626271Y-45865781D01*
X47586611Y-45859500D01*
X46613389Y-45859500D01*
X46573728Y-45865781D01*
X46442302Y-45886597D01*
X46277552Y-45940128D01*
X46123211Y-46018768D01*
X46043256Y-46076859D01*
X45983072Y-46120586D01*
X45983070Y-46120588D01*
X45983069Y-46120588D01*
X45860588Y-46243069D01*
X45860588Y-46243070D01*
X45860586Y-46243072D01*
X45860350Y-46243397D01*
X45758768Y-46383211D01*
X45680128Y-46537552D01*
X45626597Y-46702302D01*
X45610236Y-46805606D01*
X45599500Y-46873389D01*
X38500500Y-46873389D01*
X38500500Y-44333389D01*
X45599500Y-44333389D01*
X45599500Y-44506611D01*
X45626598Y-44677701D01*
X45680127Y-44842445D01*
X45758768Y-44996788D01*
X45860586Y-45136928D01*
X45983072Y-45259414D01*
X46123212Y-45361232D01*
X46277555Y-45439873D01*
X46442299Y-45493402D01*
X46613389Y-45520500D01*
X46613390Y-45520500D01*
X47586610Y-45520500D01*
X47586611Y-45520500D01*
X47757701Y-45493402D01*
X47922445Y-45439873D01*
X48076788Y-45361232D01*
X48216928Y-45259414D01*
X48339414Y-45136928D01*
X48441232Y-44996788D01*
X48519873Y-44842445D01*
X48573402Y-44677701D01*
X48600500Y-44506611D01*
X48600500Y-44333389D01*
X70999500Y-44333389D01*
X70999500Y-44506611D01*
X71026598Y-44677701D01*
X71080127Y-44842445D01*
X71158768Y-44996788D01*
X71260586Y-45136928D01*
X71383072Y-45259414D01*
X71523212Y-45361232D01*
X71677555Y-45439873D01*
X71842299Y-45493402D01*
X72013389Y-45520500D01*
X72013390Y-45520500D01*
X72986610Y-45520500D01*
X72986611Y-45520500D01*
X73157701Y-45493402D01*
X73322445Y-45439873D01*
X73476788Y-45361232D01*
X73616928Y-45259414D01*
X73739414Y-45136928D01*
X73841232Y-44996788D01*
X73919873Y-44842445D01*
X73973402Y-44677701D01*
X74000500Y-44506611D01*
X74000500Y-44333389D01*
X73973402Y-44162299D01*
X73919873Y-43997555D01*
X73841232Y-43843212D01*
X73739414Y-43703072D01*
X73616928Y-43580586D01*
X73476788Y-43478768D01*
X73322445Y-43400127D01*
X73157701Y-43346598D01*
X73157699Y-43346597D01*
X73157698Y-43346597D01*
X73026271Y-43325781D01*
X72986611Y-43319500D01*
X72013389Y-43319500D01*
X71973728Y-43325781D01*
X71842302Y-43346597D01*
X71677552Y-43400128D01*
X71523211Y-43478768D01*
X71443256Y-43536859D01*
X71383072Y-43580586D01*
X71383070Y-43580588D01*
X71383069Y-43580588D01*
X71260588Y-43703069D01*
X71260588Y-43703070D01*
X71260586Y-43703072D01*
X71216859Y-43763256D01*
X71158768Y-43843211D01*
X71080128Y-43997552D01*
X71026597Y-44162302D01*
X71022612Y-44187465D01*
X70999500Y-44333389D01*
X48600500Y-44333389D01*
X48573402Y-44162299D01*
X48519873Y-43997555D01*
X48441232Y-43843212D01*
X48339414Y-43703072D01*
X48216928Y-43580586D01*
X48076788Y-43478768D01*
X47922445Y-43400127D01*
X47757701Y-43346598D01*
X47757699Y-43346597D01*
X47757698Y-43346597D01*
X47626271Y-43325781D01*
X47586611Y-43319500D01*
X46613389Y-43319500D01*
X46573728Y-43325781D01*
X46442302Y-43346597D01*
X46277552Y-43400128D01*
X46123211Y-43478768D01*
X46043256Y-43536859D01*
X45983072Y-43580586D01*
X45983070Y-43580588D01*
X45983069Y-43580588D01*
X45860588Y-43703069D01*
X45860588Y-43703070D01*
X45860586Y-43703072D01*
X45816859Y-43763256D01*
X45758768Y-43843211D01*
X45680128Y-43997552D01*
X45626597Y-44162302D01*
X45622612Y-44187465D01*
X45599500Y-44333389D01*
X38500500Y-44333389D01*
X38500500Y-41793389D01*
X45599500Y-41793389D01*
X45599500Y-41966610D01*
X45615279Y-42066239D01*
X45626598Y-42137701D01*
X45680127Y-42302445D01*
X45758768Y-42456788D01*
X45860586Y-42596928D01*
X45983072Y-42719414D01*
X46123212Y-42821232D01*
X46277555Y-42899873D01*
X46442299Y-42953402D01*
X46613389Y-42980500D01*
X46613390Y-42980500D01*
X47586610Y-42980500D01*
X47586611Y-42980500D01*
X47757701Y-42953402D01*
X47922445Y-42899873D01*
X48076788Y-42821232D01*
X48216928Y-42719414D01*
X48339414Y-42596928D01*
X48441232Y-42456788D01*
X48519873Y-42302445D01*
X48573402Y-42137701D01*
X48600500Y-41966611D01*
X48600500Y-41793389D01*
X70999500Y-41793389D01*
X70999500Y-41966610D01*
X71015279Y-42066239D01*
X71026598Y-42137701D01*
X71080127Y-42302445D01*
X71158768Y-42456788D01*
X71260586Y-42596928D01*
X71383072Y-42719414D01*
X71523212Y-42821232D01*
X71677555Y-42899873D01*
X71842299Y-42953402D01*
X72013389Y-42980500D01*
X72013390Y-42980500D01*
X72986610Y-42980500D01*
X72986611Y-42980500D01*
X73157701Y-42953402D01*
X73322445Y-42899873D01*
X73476788Y-42821232D01*
X73616928Y-42719414D01*
X73739414Y-42596928D01*
X73841232Y-42456788D01*
X73919873Y-42302445D01*
X73973402Y-42137701D01*
X74000500Y-41966611D01*
X74000500Y-41793389D01*
X73973402Y-41622299D01*
X73919873Y-41457555D01*
X73841232Y-41303212D01*
X73739414Y-41163072D01*
X73616928Y-41040586D01*
X73476788Y-40938768D01*
X73322445Y-40860127D01*
X73157701Y-40806598D01*
X73157699Y-40806597D01*
X73157698Y-40806597D01*
X73026271Y-40785781D01*
X72986611Y-40779500D01*
X72013389Y-40779500D01*
X71973728Y-40785781D01*
X71842302Y-40806597D01*
X71677552Y-40860128D01*
X71523211Y-40938768D01*
X71443256Y-40996859D01*
X71383072Y-41040586D01*
X71383070Y-41040588D01*
X71383069Y-41040588D01*
X71260588Y-41163069D01*
X71260588Y-41163070D01*
X71260586Y-41163072D01*
X71216859Y-41223256D01*
X71158768Y-41303211D01*
X71080128Y-41457552D01*
X71026597Y-41622302D01*
X70999500Y-41793389D01*
X48600500Y-41793389D01*
X48573402Y-41622299D01*
X48519873Y-41457555D01*
X48441232Y-41303212D01*
X48339414Y-41163072D01*
X48216928Y-41040586D01*
X48076788Y-40938768D01*
X47922445Y-40860127D01*
X47757701Y-40806598D01*
X47757699Y-40806597D01*
X47757698Y-40806597D01*
X47626271Y-40785781D01*
X47586611Y-40779500D01*
X46613389Y-40779500D01*
X46573728Y-40785781D01*
X46442302Y-40806597D01*
X46277552Y-40860128D01*
X46123211Y-40938768D01*
X46043256Y-40996859D01*
X45983072Y-41040586D01*
X45983070Y-41040588D01*
X45983069Y-41040588D01*
X45860588Y-41163069D01*
X45860588Y-41163070D01*
X45860586Y-41163072D01*
X45816859Y-41223256D01*
X45758768Y-41303211D01*
X45680128Y-41457552D01*
X45626597Y-41622302D01*
X45599500Y-41793389D01*
X38500500Y-41793389D01*
X38500500Y-39253389D01*
X45599500Y-39253389D01*
X45599500Y-39426610D01*
X45621615Y-39566243D01*
X45626598Y-39597701D01*
X45680127Y-39762445D01*
X45758768Y-39916788D01*
X45860586Y-40056928D01*
X45983072Y-40179414D01*
X46123212Y-40281232D01*
X46277555Y-40359873D01*
X46442299Y-40413402D01*
X46613389Y-40440500D01*
X46613390Y-40440500D01*
X47586610Y-40440500D01*
X47586611Y-40440500D01*
X47757701Y-40413402D01*
X47922445Y-40359873D01*
X48076788Y-40281232D01*
X48216928Y-40179414D01*
X48339414Y-40056928D01*
X48441232Y-39916788D01*
X48519873Y-39762445D01*
X48573402Y-39597701D01*
X48600500Y-39426611D01*
X48600500Y-39253389D01*
X70999500Y-39253389D01*
X70999500Y-39426610D01*
X71021615Y-39566243D01*
X71026598Y-39597701D01*
X71080127Y-39762445D01*
X71158768Y-39916788D01*
X71260586Y-40056928D01*
X71383072Y-40179414D01*
X71523212Y-40281232D01*
X71677555Y-40359873D01*
X71842299Y-40413402D01*
X72013389Y-40440500D01*
X72013390Y-40440500D01*
X72986610Y-40440500D01*
X72986611Y-40440500D01*
X73157701Y-40413402D01*
X73322445Y-40359873D01*
X73476788Y-40281232D01*
X73616928Y-40179414D01*
X73739414Y-40056928D01*
X73841232Y-39916788D01*
X73919873Y-39762445D01*
X73973402Y-39597701D01*
X74000500Y-39426611D01*
X74000500Y-39253389D01*
X73973402Y-39082299D01*
X73919873Y-38917555D01*
X73841232Y-38763212D01*
X73739414Y-38623072D01*
X73616928Y-38500586D01*
X73476788Y-38398768D01*
X73322445Y-38320127D01*
X73157701Y-38266598D01*
X73157699Y-38266597D01*
X73157698Y-38266597D01*
X73026271Y-38245781D01*
X72986611Y-38239500D01*
X72013389Y-38239500D01*
X71973728Y-38245781D01*
X71842302Y-38266597D01*
X71677552Y-38320128D01*
X71523211Y-38398768D01*
X71443256Y-38456859D01*
X71383072Y-38500586D01*
X71383070Y-38500588D01*
X71383069Y-38500588D01*
X71260588Y-38623069D01*
X71260588Y-38623070D01*
X71260586Y-38623072D01*
X71216859Y-38683256D01*
X71158768Y-38763211D01*
X71080128Y-38917552D01*
X71026597Y-39082302D01*
X70999500Y-39253389D01*
X48600500Y-39253389D01*
X48573402Y-39082299D01*
X48519873Y-38917555D01*
X48441232Y-38763212D01*
X48339414Y-38623072D01*
X48216928Y-38500586D01*
X48076788Y-38398768D01*
X47922445Y-38320127D01*
X47757701Y-38266598D01*
X47757699Y-38266597D01*
X47757698Y-38266597D01*
X47626271Y-38245781D01*
X47586611Y-38239500D01*
X46613389Y-38239500D01*
X46573728Y-38245781D01*
X46442302Y-38266597D01*
X46277552Y-38320128D01*
X46123211Y-38398768D01*
X46043256Y-38456859D01*
X45983072Y-38500586D01*
X45983070Y-38500588D01*
X45983069Y-38500588D01*
X45860588Y-38623069D01*
X45860588Y-38623070D01*
X45860586Y-38623072D01*
X45816859Y-38683256D01*
X45758768Y-38763211D01*
X45680128Y-38917552D01*
X45626597Y-39082302D01*
X45599500Y-39253389D01*
X38500500Y-39253389D01*
X38500500Y-35393713D01*
X40149500Y-35393713D01*
X40149500Y-35606286D01*
X40177464Y-35782848D01*
X40182754Y-35816243D01*
X40203402Y-35879792D01*
X40248444Y-36018414D01*
X40344951Y-36207820D01*
X40469890Y-36379786D01*
X40620213Y-36530109D01*
X40792179Y-36655048D01*
X40792181Y-36655049D01*
X40792184Y-36655051D01*
X40981588Y-36751557D01*
X41183757Y-36817246D01*
X41393713Y-36850500D01*
X41393714Y-36850500D01*
X41606286Y-36850500D01*
X41606287Y-36850500D01*
X41816243Y-36817246D01*
X42018412Y-36751557D01*
X42087983Y-36716109D01*
X45603180Y-36716109D01*
X45603180Y-36889330D01*
X45629846Y-37057697D01*
X45630278Y-37060421D01*
X45683807Y-37225165D01*
X45762448Y-37379508D01*
X45864266Y-37519648D01*
X45986752Y-37642134D01*
X46126892Y-37743952D01*
X46281235Y-37822593D01*
X46445979Y-37876122D01*
X46617069Y-37903220D01*
X46617070Y-37903220D01*
X47590290Y-37903220D01*
X47590291Y-37903220D01*
X47761381Y-37876122D01*
X47926125Y-37822593D01*
X48080468Y-37743952D01*
X48220608Y-37642134D01*
X48343094Y-37519648D01*
X48444912Y-37379508D01*
X48523553Y-37225165D01*
X48577082Y-37060421D01*
X48604180Y-36889331D01*
X48604180Y-36716109D01*
X48603749Y-36713389D01*
X70999500Y-36713389D01*
X70999500Y-36886611D01*
X71026598Y-37057701D01*
X71080127Y-37222445D01*
X71158768Y-37376788D01*
X71260586Y-37516928D01*
X71383072Y-37639414D01*
X71523212Y-37741232D01*
X71677555Y-37819873D01*
X71842299Y-37873402D01*
X72013389Y-37900500D01*
X72013390Y-37900500D01*
X72986610Y-37900500D01*
X72986611Y-37900500D01*
X73157701Y-37873402D01*
X73322445Y-37819873D01*
X73476788Y-37741232D01*
X73616928Y-37639414D01*
X73739414Y-37516928D01*
X73841232Y-37376788D01*
X73919873Y-37222445D01*
X73973402Y-37057701D01*
X74000500Y-36886611D01*
X74000500Y-36713389D01*
X73989464Y-36643713D01*
X89579500Y-36643713D01*
X89579500Y-36856287D01*
X89612754Y-37066243D01*
X89663507Y-37222445D01*
X89678444Y-37268414D01*
X89774951Y-37457820D01*
X89899890Y-37629786D01*
X90050209Y-37780105D01*
X90050214Y-37780109D01*
X90214793Y-37899682D01*
X90257459Y-37955011D01*
X90263438Y-38024625D01*
X90230833Y-38086420D01*
X90214793Y-38100318D01*
X90050214Y-38219890D01*
X90050209Y-38219894D01*
X89899890Y-38370213D01*
X89774951Y-38542179D01*
X89678444Y-38731585D01*
X89612753Y-38933760D01*
X89579500Y-39143713D01*
X89579500Y-39356287D01*
X89612754Y-39566243D01*
X89676504Y-39762445D01*
X89678444Y-39768414D01*
X89774951Y-39957820D01*
X89899890Y-40129786D01*
X90050209Y-40280105D01*
X90050214Y-40280109D01*
X90214793Y-40399682D01*
X90257459Y-40455011D01*
X90263438Y-40524625D01*
X90230833Y-40586420D01*
X90214793Y-40600318D01*
X90050214Y-40719890D01*
X90050209Y-40719894D01*
X89899890Y-40870213D01*
X89774951Y-41042179D01*
X89678444Y-41231585D01*
X89612753Y-41433760D01*
X89579500Y-41643713D01*
X89579500Y-41856286D01*
X89596973Y-41966610D01*
X89612754Y-42066243D01*
X89635972Y-42137701D01*
X89678444Y-42268414D01*
X89774951Y-42457820D01*
X89899890Y-42629786D01*
X90039068Y-42768964D01*
X90072553Y-42830287D01*
X90067569Y-42899979D01*
X90025697Y-42955912D01*
X90016484Y-42962183D01*
X89861659Y-43057680D01*
X89861655Y-43057683D01*
X89737684Y-43181654D01*
X89645643Y-43330875D01*
X89645641Y-43330880D01*
X89590494Y-43497302D01*
X89590493Y-43497309D01*
X89580000Y-43600013D01*
X89580000Y-44000000D01*
X90650854Y-44000000D01*
X90612370Y-44066657D01*
X90580000Y-44187465D01*
X90580000Y-44312535D01*
X90612370Y-44433343D01*
X90650854Y-44500000D01*
X89580001Y-44500000D01*
X89580001Y-44899986D01*
X89590494Y-45002697D01*
X89645641Y-45169119D01*
X89645643Y-45169124D01*
X89737684Y-45318345D01*
X89861654Y-45442315D01*
X90010875Y-45534356D01*
X90010880Y-45534358D01*
X90177302Y-45589505D01*
X90177309Y-45589506D01*
X90280019Y-45599999D01*
X90804999Y-45599999D01*
X90805000Y-45599998D01*
X90805000Y-44654145D01*
X90871657Y-44692630D01*
X90992465Y-44725000D01*
X91117535Y-44725000D01*
X91238343Y-44692630D01*
X91305000Y-44654145D01*
X91305000Y-45599999D01*
X91829972Y-45599999D01*
X91829986Y-45599998D01*
X91932697Y-45589505D01*
X92099119Y-45534358D01*
X92099124Y-45534356D01*
X92248345Y-45442315D01*
X92372315Y-45318345D01*
X92464356Y-45169124D01*
X92464358Y-45169119D01*
X92519505Y-45002697D01*
X92519506Y-45002690D01*
X92529999Y-44899986D01*
X92530000Y-44899973D01*
X92530000Y-44500000D01*
X91459146Y-44500000D01*
X91497630Y-44433343D01*
X91530000Y-44312535D01*
X91530000Y-44187465D01*
X91497630Y-44066657D01*
X91459146Y-44000000D01*
X92529999Y-44000000D01*
X92529999Y-43600028D01*
X92529998Y-43600013D01*
X92519505Y-43497302D01*
X92464358Y-43330880D01*
X92464356Y-43330875D01*
X92372315Y-43181654D01*
X92248345Y-43057684D01*
X92093515Y-42962184D01*
X92046791Y-42910236D01*
X92035568Y-42841273D01*
X92063412Y-42777191D01*
X92070909Y-42768986D01*
X92210104Y-42629792D01*
X92233980Y-42596930D01*
X92335048Y-42457820D01*
X92335047Y-42457820D01*
X92335051Y-42457816D01*
X92431557Y-42268412D01*
X92497246Y-42066243D01*
X92530500Y-41856287D01*
X92530500Y-41643713D01*
X92497246Y-41433757D01*
X92431557Y-41231588D01*
X92335051Y-41042184D01*
X92335049Y-41042181D01*
X92335048Y-41042179D01*
X92210109Y-40870213D01*
X92059792Y-40719896D01*
X92059784Y-40719890D01*
X91895204Y-40600316D01*
X91852540Y-40544989D01*
X91846561Y-40475376D01*
X91879166Y-40413580D01*
X91895199Y-40399686D01*
X92059792Y-40280104D01*
X92210104Y-40129792D01*
X92210106Y-40129788D01*
X92210109Y-40129786D01*
X92335048Y-39957820D01*
X92335047Y-39957820D01*
X92335051Y-39957816D01*
X92431557Y-39768412D01*
X92497246Y-39566243D01*
X92530500Y-39356287D01*
X92530500Y-39143713D01*
X92497246Y-38933757D01*
X92431557Y-38731588D01*
X92335051Y-38542184D01*
X92335049Y-38542181D01*
X92335048Y-38542179D01*
X92210109Y-38370213D01*
X92059792Y-38219896D01*
X92059784Y-38219890D01*
X91895204Y-38100316D01*
X91852540Y-38044989D01*
X91846561Y-37975376D01*
X91879166Y-37913580D01*
X91895199Y-37899686D01*
X92059792Y-37780104D01*
X92210104Y-37629792D01*
X92210106Y-37629788D01*
X92210109Y-37629786D01*
X92335048Y-37457820D01*
X92335047Y-37457820D01*
X92335051Y-37457816D01*
X92431557Y-37268412D01*
X92497246Y-37066243D01*
X92530500Y-36856287D01*
X92530500Y-36643713D01*
X92497246Y-36433757D01*
X92431557Y-36231588D01*
X92335051Y-36042184D01*
X92335049Y-36042181D01*
X92335048Y-36042179D01*
X92210109Y-35870213D01*
X92059786Y-35719890D01*
X91887820Y-35594951D01*
X91698414Y-35498444D01*
X91698413Y-35498443D01*
X91698412Y-35498443D01*
X91496243Y-35432754D01*
X91496241Y-35432753D01*
X91496240Y-35432753D01*
X91334957Y-35407208D01*
X91286287Y-35399500D01*
X90823713Y-35399500D01*
X90775042Y-35407208D01*
X90613760Y-35432753D01*
X90411585Y-35498444D01*
X90222179Y-35594951D01*
X90050213Y-35719890D01*
X89899890Y-35870213D01*
X89774951Y-36042179D01*
X89678444Y-36231585D01*
X89612753Y-36433760D01*
X89595131Y-36545022D01*
X89579500Y-36643713D01*
X73989464Y-36643713D01*
X73973402Y-36542299D01*
X73919873Y-36377555D01*
X73841232Y-36223212D01*
X73739414Y-36083072D01*
X73616928Y-35960586D01*
X73476788Y-35858768D01*
X73322445Y-35780127D01*
X73157701Y-35726598D01*
X73157699Y-35726597D01*
X73157698Y-35726597D01*
X73003784Y-35702220D01*
X72986611Y-35699500D01*
X72013389Y-35699500D01*
X71996216Y-35702220D01*
X71842302Y-35726597D01*
X71677552Y-35780128D01*
X71523211Y-35858768D01*
X71443256Y-35916859D01*
X71383072Y-35960586D01*
X71383070Y-35960588D01*
X71383069Y-35960588D01*
X71260588Y-36083069D01*
X71260588Y-36083070D01*
X71260586Y-36083072D01*
X71258610Y-36085792D01*
X71158768Y-36223211D01*
X71080128Y-36377552D01*
X71026597Y-36542302D01*
X71008740Y-36655048D01*
X70999500Y-36713389D01*
X48603749Y-36713389D01*
X48577082Y-36545019D01*
X48523553Y-36380275D01*
X48444912Y-36225932D01*
X48343094Y-36085792D01*
X48220608Y-35963306D01*
X48080468Y-35861488D01*
X47926125Y-35782847D01*
X47761381Y-35729318D01*
X47761379Y-35729317D01*
X47761378Y-35729317D01*
X47625623Y-35707816D01*
X47590291Y-35702220D01*
X46617069Y-35702220D01*
X46581737Y-35707816D01*
X46445982Y-35729317D01*
X46281232Y-35782848D01*
X46126891Y-35861488D01*
X46046936Y-35919579D01*
X45986752Y-35963306D01*
X45986750Y-35963308D01*
X45986749Y-35963308D01*
X45864268Y-36085789D01*
X45864268Y-36085790D01*
X45864266Y-36085792D01*
X45820539Y-36145976D01*
X45762448Y-36225931D01*
X45683808Y-36380272D01*
X45630277Y-36545022D01*
X45603180Y-36716109D01*
X42087983Y-36716109D01*
X42207816Y-36655051D01*
X42238776Y-36632556D01*
X42268560Y-36610919D01*
X42379786Y-36530109D01*
X42379788Y-36530106D01*
X42379792Y-36530104D01*
X42530104Y-36379792D01*
X42530106Y-36379788D01*
X42530109Y-36379786D01*
X42655048Y-36207820D01*
X42655047Y-36207820D01*
X42655051Y-36207816D01*
X42751557Y-36018412D01*
X42817246Y-35816243D01*
X42850500Y-35606287D01*
X42850500Y-35393713D01*
X42817246Y-35183757D01*
X42751557Y-34981588D01*
X42655051Y-34792184D01*
X42655049Y-34792181D01*
X42655048Y-34792179D01*
X42530109Y-34620213D01*
X42379786Y-34469890D01*
X42207819Y-34344951D01*
X42207818Y-34344950D01*
X42207816Y-34344949D01*
X42018412Y-34248443D01*
X41816243Y-34182754D01*
X41816241Y-34182753D01*
X41816240Y-34182753D01*
X41774292Y-34176109D01*
X45603180Y-34176109D01*
X45603180Y-34349330D01*
X45629846Y-34517697D01*
X45630278Y-34520421D01*
X45683807Y-34685165D01*
X45762448Y-34839508D01*
X45864266Y-34979648D01*
X45986752Y-35102134D01*
X46126892Y-35203952D01*
X46281235Y-35282593D01*
X46445979Y-35336122D01*
X46617069Y-35363220D01*
X46617070Y-35363220D01*
X47590290Y-35363220D01*
X47590291Y-35363220D01*
X47761381Y-35336122D01*
X47926125Y-35282593D01*
X48080468Y-35203952D01*
X48220608Y-35102134D01*
X48343094Y-34979648D01*
X48444912Y-34839508D01*
X48523553Y-34685165D01*
X48577082Y-34520421D01*
X48604180Y-34349331D01*
X48604180Y-34176109D01*
X48603749Y-34173389D01*
X70999500Y-34173389D01*
X70999500Y-34346611D01*
X71026598Y-34517701D01*
X71080127Y-34682445D01*
X71158768Y-34836788D01*
X71260586Y-34976928D01*
X71383072Y-35099414D01*
X71523212Y-35201232D01*
X71677555Y-35279873D01*
X71842299Y-35333402D01*
X72013389Y-35360500D01*
X72013390Y-35360500D01*
X72986610Y-35360500D01*
X72986611Y-35360500D01*
X73157701Y-35333402D01*
X73322445Y-35279873D01*
X73476788Y-35201232D01*
X73616928Y-35099414D01*
X73739414Y-34976928D01*
X73799873Y-34893713D01*
X76149500Y-34893713D01*
X76149500Y-35106286D01*
X76176993Y-35279873D01*
X76182754Y-35316243D01*
X76188329Y-35333402D01*
X76248444Y-35518414D01*
X76344951Y-35707820D01*
X76469890Y-35879786D01*
X76620213Y-36030109D01*
X76792179Y-36155048D01*
X76792181Y-36155049D01*
X76792184Y-36155051D01*
X76981588Y-36251557D01*
X77183757Y-36317246D01*
X77393713Y-36350500D01*
X77393714Y-36350500D01*
X77606286Y-36350500D01*
X77606287Y-36350500D01*
X77816243Y-36317246D01*
X78018412Y-36251557D01*
X78207816Y-36155051D01*
X78303144Y-36085792D01*
X78379786Y-36030109D01*
X78379788Y-36030106D01*
X78379792Y-36030104D01*
X78530104Y-35879792D01*
X78530106Y-35879788D01*
X78530109Y-35879786D01*
X78655048Y-35707820D01*
X78655047Y-35707820D01*
X78655051Y-35707816D01*
X78751557Y-35518412D01*
X78817246Y-35316243D01*
X78850500Y-35106287D01*
X78850500Y-34893713D01*
X78817246Y-34683757D01*
X78751557Y-34481588D01*
X78655051Y-34292184D01*
X78655049Y-34292181D01*
X78655048Y-34292179D01*
X78530109Y-34120213D01*
X78379786Y-33969890D01*
X78207820Y-33844951D01*
X78018414Y-33748444D01*
X78018413Y-33748443D01*
X78018412Y-33748443D01*
X77816243Y-33682754D01*
X77816241Y-33682753D01*
X77816240Y-33682753D01*
X77654957Y-33657208D01*
X77606287Y-33649500D01*
X77393713Y-33649500D01*
X77345042Y-33657208D01*
X77183760Y-33682753D01*
X76981585Y-33748444D01*
X76792179Y-33844951D01*
X76620213Y-33969890D01*
X76469890Y-34120213D01*
X76344951Y-34292179D01*
X76248444Y-34481585D01*
X76182753Y-34683760D01*
X76149500Y-34893713D01*
X73799873Y-34893713D01*
X73841232Y-34836788D01*
X73919873Y-34682445D01*
X73973402Y-34517701D01*
X74000500Y-34346611D01*
X74000500Y-34173389D01*
X73973402Y-34002299D01*
X73919873Y-33837555D01*
X73841232Y-33683212D01*
X73739414Y-33543072D01*
X73616928Y-33420586D01*
X73476788Y-33318768D01*
X73322445Y-33240127D01*
X73157701Y-33186598D01*
X73157699Y-33186597D01*
X73157698Y-33186597D01*
X73003784Y-33162220D01*
X72986611Y-33159500D01*
X72013389Y-33159500D01*
X71996216Y-33162220D01*
X71842302Y-33186597D01*
X71677552Y-33240128D01*
X71523211Y-33318768D01*
X71443256Y-33376859D01*
X71383072Y-33420586D01*
X71383070Y-33420588D01*
X71383069Y-33420588D01*
X71260588Y-33543069D01*
X71260588Y-33543070D01*
X71260586Y-33543072D01*
X71258610Y-33545792D01*
X71158768Y-33683211D01*
X71080128Y-33837552D01*
X71026597Y-34002302D01*
X71007923Y-34120208D01*
X70999500Y-34173389D01*
X48603749Y-34173389D01*
X48577082Y-34005019D01*
X48523553Y-33840275D01*
X48444912Y-33685932D01*
X48343094Y-33545792D01*
X48220608Y-33423306D01*
X48080468Y-33321488D01*
X47926125Y-33242847D01*
X47761381Y-33189318D01*
X47761379Y-33189317D01*
X47761378Y-33189317D01*
X47629951Y-33168501D01*
X47590291Y-33162220D01*
X46617069Y-33162220D01*
X46577408Y-33168501D01*
X46445982Y-33189317D01*
X46281232Y-33242848D01*
X46126891Y-33321488D01*
X46046936Y-33379579D01*
X45986752Y-33423306D01*
X45986750Y-33423308D01*
X45986749Y-33423308D01*
X45864268Y-33545789D01*
X45864268Y-33545790D01*
X45864266Y-33545792D01*
X45820539Y-33605976D01*
X45762448Y-33685931D01*
X45683808Y-33840272D01*
X45630277Y-34005022D01*
X45603180Y-34176109D01*
X41774292Y-34176109D01*
X41654957Y-34157208D01*
X41606287Y-34149500D01*
X41393713Y-34149500D01*
X41345042Y-34157208D01*
X41183760Y-34182753D01*
X40981585Y-34248444D01*
X40792179Y-34344951D01*
X40620213Y-34469890D01*
X40469890Y-34620213D01*
X40344951Y-34792179D01*
X40248444Y-34981585D01*
X40182753Y-35183760D01*
X40149500Y-35393713D01*
X38500500Y-35393713D01*
X38500500Y-32124500D01*
X38520185Y-32057461D01*
X38572989Y-32011706D01*
X38624500Y-32000500D01*
X93375500Y-32000500D01*
X93442539Y-32020185D01*
G37*
%TD.AperFunction*%
%TD*%
M02*
