%TF.GenerationSoftware,KiCad,Pcbnew,10.0.4*%
%TF.CreationDate,2026-07-16T11:03:35+02:00*%
%TF.ProjectId,PCB,5043422e-6b69-4636-9164-5f7063625858,rev?*%
%TF.SameCoordinates,Original*%
%TF.FileFunction,Copper,L1,Top*%
%TF.FilePolarity,Positive*%
%FSLAX46Y46*%
G04 Gerber Fmt 4.6, Leading zero omitted, Abs format (unit mm)*
G04 Created by KiCad (PCBNEW 10.0.4) date 2026-07-16 11:03:35*
%MOMM*%
%LPD*%
G01*
G04 APERTURE LIST*
G04 Aperture macros list*
%AMRoundRect*
0 Rectangle with rounded corners*
0 $1 Rounding radius*
0 $2 $3 $4 $5 $6 $7 $8 $9 X,Y pos of 4 corners*
0 Add a 4 corners polygon primitive as box body*
4,1,4,$2,$3,$4,$5,$6,$7,$8,$9,$2,$3,0*
0 Add four circle primitives for the rounded corners*
1,1,$1+$1,$2,$3*
1,1,$1+$1,$4,$5*
1,1,$1+$1,$6,$7*
1,1,$1+$1,$8,$9*
0 Add four rect primitives between the rounded corners*
20,1,$1+$1,$2,$3,$4,$5,0*
20,1,$1+$1,$4,$5,$6,$7,0*
20,1,$1+$1,$6,$7,$8,$9,0*
20,1,$1+$1,$8,$9,$2,$3,0*%
G04 Aperture macros list end*
%TA.AperFunction,SMDPad,CuDef*%
%ADD10RoundRect,0.150000X-0.587500X-0.150000X0.587500X-0.150000X0.587500X0.150000X-0.587500X0.150000X0*%
%TD*%
%TA.AperFunction,ComponentPad*%
%ADD11RoundRect,0.250000X0.725000X-0.600000X0.725000X0.600000X-0.725000X0.600000X-0.725000X-0.600000X0*%
%TD*%
%TA.AperFunction,ComponentPad*%
%ADD12O,1.950000X1.700000*%
%TD*%
%TA.AperFunction,ComponentPad*%
%ADD13R,2.000000X1.200000*%
%TD*%
%TA.AperFunction,ComponentPad*%
%ADD14O,2.000000X1.200000*%
%TD*%
%TA.AperFunction,ComponentPad*%
%ADD15RoundRect,0.250000X-1.050000X-1.050000X1.050000X-1.050000X1.050000X1.050000X-1.050000X1.050000X0*%
%TD*%
%TA.AperFunction,ComponentPad*%
%ADD16C,2.600000*%
%TD*%
%TA.AperFunction,ComponentPad*%
%ADD17RoundRect,0.250000X-0.600000X-0.725000X0.600000X-0.725000X0.600000X0.725000X-0.600000X0.725000X0*%
%TD*%
%TA.AperFunction,ComponentPad*%
%ADD18O,1.700000X1.950000*%
%TD*%
%TA.AperFunction,ComponentPad*%
%ADD19R,1.524000X1.524000*%
%TD*%
%TA.AperFunction,ViaPad*%
%ADD20C,0.600000*%
%TD*%
%TA.AperFunction,Conductor*%
%ADD21C,0.300000*%
%TD*%
%TA.AperFunction,Conductor*%
%ADD22C,0.350000*%
%TD*%
G04 APERTURE END LIST*
D10*
%TO.P,Q3,1,G_1*%
%TO.N,Net-(Q3-G)*%
X81125000Y-60550000D03*
%TO.P,Q3,2,S_2*%
%TO.N,Net-(J1-Pin_1)*%
X81125000Y-62450000D03*
%TO.P,Q3,3,D_3*%
%TO.N,Net-(J3-Pin_2)*%
X83000000Y-61500000D03*
%TD*%
D11*
%TO.P,J1,1,Pin_1_1*%
%TO.N,Net-(J1-Pin_1)*%
X91055000Y-44250000D03*
D12*
%TO.P,J1,2,Pin_2_2*%
%TO.N,Net-(J1-Pin_2)*%
X91055000Y-41750000D03*
%TO.P,J1,3,Pin_3_3*%
%TO.N,Net-(J1-Pin_3)*%
X91055000Y-39250000D03*
%TO.P,J1,4,Pin_4_4*%
%TO.N,Net-(J1-Pin_4)*%
X91055000Y-36750000D03*
%TD*%
D13*
%TO.P,U1,1,3V3_1*%
%TO.N,unconnected-(U1-3V3-Pad1)*%
X72500000Y-79980000D03*
D14*
%TO.P,U1,2,CHIP_PU_2*%
%TO.N,unconnected-(U1-CHIP_PU-Pad2)*%
X72500000Y-77440000D03*
%TO.P,U1,3,SENSOR_VP/GPIO36/ADC1_CH0_3*%
%TO.N,unconnected-(U1-SENSOR_VP{slash}GPIO36{slash}ADC1_CH0-Pad3)*%
X72500000Y-74900000D03*
%TO.P,U1,4,SENSOR_VN/GPIO39/ADC1_CH3_4*%
%TO.N,unconnected-(U1-SENSOR_VN{slash}GPIO39{slash}ADC1_CH3-Pad4)*%
X72500000Y-72360000D03*
%TO.P,U1,5,VDET_1/GPIO34/ADC1_CH6_5*%
%TO.N,unconnected-(U1-VDET_1{slash}GPIO34{slash}ADC1_CH6-Pad5)*%
X72500000Y-69820000D03*
%TO.P,U1,6,VDET_2/GPIO35/ADC1_CH7_6*%
%TO.N,unconnected-(U1-VDET_2{slash}GPIO35{slash}ADC1_CH7-Pad6)*%
X72500000Y-67280000D03*
%TO.P,U1,7,32K_XP/GPIO32/ADC1_CH4_7*%
%TO.N,Net-(Q4-G)*%
X72500000Y-64740000D03*
%TO.P,U1,8,32K_XN/GPIO33/ADC1_CH5_8*%
%TO.N,Net-(J4-Pin_4)*%
X72500000Y-62200000D03*
%TO.P,U1,9,DAC_1/ADC2_CH8/GPIO25_9*%
%TO.N,Net-(Q3-G)*%
X72500000Y-59660000D03*
%TO.P,U1,10,DAC_2/ADC2_CH9/GPIO26_10*%
%TO.N,Net-(J3-Pin_4)*%
X72500000Y-57120000D03*
%TO.P,U1,11,ADC2_CH7/GPIO27_11*%
%TO.N,Net-(Q2-G)*%
X72500000Y-54580000D03*
%TO.P,U1,12,MTMS/GPIO14/ADC2_CH6_12*%
%TO.N,Net-(J2-Pin_4)*%
X72500000Y-52040000D03*
%TO.P,U1,13,MTDI/GPIO12/ADC2_CH5_13*%
%TO.N,Net-(Q1-G)*%
X72500000Y-49500000D03*
%TO.P,U1,14,GND_14*%
%TO.N,Net-(J1-Pin_1)*%
X72500000Y-46960000D03*
%TO.P,U1,15,MTCK/GPIO13/ADC2_CH4_15*%
%TO.N,Net-(J1-Pin_4)*%
X72500000Y-44420000D03*
%TO.P,U1,16,SD_DATA2/GPIO9_16*%
%TO.N,unconnected-(U1-SD_DATA2{slash}GPIO9-Pad16)*%
X72500000Y-41880000D03*
%TO.P,U1,17,SD_DATA3/GPIO10_17*%
%TO.N,unconnected-(U1-SD_DATA3{slash}GPIO10-Pad17)*%
X72500000Y-39340000D03*
%TO.P,U1,18,CMD_18*%
%TO.N,unconnected-(U1-CMD-Pad18)*%
X72500000Y-36800000D03*
%TO.P,U1,19,5V_19*%
%TO.N,Net-(J5-Pin_3)*%
X72500000Y-34260000D03*
%TO.P,U1,20,SD_CLK/GPIO6_20*%
%TO.N,unconnected-(U1-SD_CLK{slash}GPIO6-Pad20)*%
X47103680Y-34262720D03*
%TO.P,U1,21,SD_DATA0/GPIO7_21*%
%TO.N,unconnected-(U1-SD_DATA0{slash}GPIO7-Pad21)*%
X47103680Y-36802720D03*
%TO.P,U1,22,SD_DATA1/GPIO8_22*%
%TO.N,unconnected-(U1-SD_DATA1{slash}GPIO8-Pad22)*%
X47100000Y-39340000D03*
%TO.P,U1,23,MTDO/GPIO15/ADC2_CH3_23*%
%TO.N,unconnected-(U1-MTDO{slash}GPIO15{slash}ADC2_CH3-Pad23)*%
X47100000Y-41880000D03*
%TO.P,U1,24,ADC2_CH2/GPIO2_24*%
%TO.N,unconnected-(U1-ADC2_CH2{slash}GPIO2-Pad24)*%
X47100000Y-44420000D03*
%TO.P,U1,25,GPIO0/BOOT/ADC2_CH1_25*%
%TO.N,unconnected-(U1-GPIO0{slash}BOOT{slash}ADC2_CH1-Pad25)*%
X47100000Y-46960000D03*
%TO.P,U1,26,ADC2_CH0/GPIO4_26*%
%TO.N,Net-(J5-Pin_2)*%
X47100000Y-49500000D03*
%TO.P,U1,27,GPIO16_27*%
%TO.N,unconnected-(U1-GPIO16-Pad27)*%
X47100000Y-52040000D03*
%TO.P,U1,28,GPIO17_28*%
%TO.N,unconnected-(U1-GPIO17-Pad28)*%
X47100000Y-54580000D03*
%TO.P,U1,29,GPIO5_29*%
%TO.N,unconnected-(U1-GPIO5-Pad29)*%
X47100000Y-57120000D03*
%TO.P,U1,30,GPIO18_30*%
%TO.N,Net-(J6-Pin_7)*%
X47100000Y-59660000D03*
%TO.P,U1,31,GPIO19_31*%
%TO.N,Net-(J6-Pin_6)*%
X47100000Y-62200000D03*
%TO.P,U1,32,GND_32*%
%TO.N,Net-(J1-Pin_1)*%
X47100000Y-64740000D03*
%TO.P,U1,33,GPIO21_33*%
%TO.N,Net-(J6-Pin_5)*%
X47100000Y-67280000D03*
%TO.P,U1,34,U0RXD/GPIO3_34*%
%TO.N,unconnected-(U1-U0RXD{slash}GPIO3-Pad34)*%
X47100000Y-69820000D03*
%TO.P,U1,35,U0TXD/GPIO1_35*%
%TO.N,unconnected-(U1-U0TXD{slash}GPIO1-Pad35)*%
X47100000Y-72360000D03*
%TO.P,U1,36,GPIO22_36*%
%TO.N,Net-(J6-Pin_4)*%
X47100000Y-74900000D03*
%TO.P,U1,37,GPIO23_37*%
%TO.N,Net-(J6-Pin_3)*%
X47100000Y-77440000D03*
%TO.P,U1,38,GND_38*%
%TO.N,Net-(J1-Pin_1)*%
X47100000Y-79980000D03*
%TD*%
D10*
%TO.P,Q2,1,G_1*%
%TO.N,Net-(Q2-G)*%
X81000000Y-50550000D03*
%TO.P,Q2,2,S_2*%
%TO.N,Net-(J1-Pin_1)*%
X81000000Y-52450000D03*
%TO.P,Q2,3,D_3*%
%TO.N,Net-(J2-Pin_2)*%
X82875000Y-51500000D03*
%TD*%
D11*
%TO.P,J5,1,Pin_1_1*%
%TO.N,Net-(J1-Pin_1)*%
X91055000Y-103500000D03*
D12*
%TO.P,J5,2,Pin_2_2*%
%TO.N,Net-(J5-Pin_2)*%
X91055000Y-101000000D03*
%TO.P,J5,3,Pin_3_3*%
%TO.N,Net-(J5-Pin_3)*%
X91055000Y-98500000D03*
%TD*%
D11*
%TO.P,J4,1,Pin_1_1*%
%TO.N,Net-(J1-Pin_1)*%
X91150000Y-89750000D03*
D12*
%TO.P,J4,2,Pin_2_2*%
%TO.N,Net-(J4-Pin_2)*%
X91150000Y-87250000D03*
%TO.P,J4,3,Pin_3_3*%
%TO.N,Net-(J1-Pin_3)*%
X91150000Y-84750000D03*
%TO.P,J4,4,Pin_4_4*%
%TO.N,Net-(J4-Pin_4)*%
X91150000Y-82250000D03*
%TD*%
D15*
%TO.P,J7,1,Pin_1_1*%
%TO.N,Net-(J1-Pin_1)*%
X51500000Y-120000000D03*
D16*
%TO.P,J7,2,Pin_2_2*%
%TO.N,Net-(J5-Pin_3)*%
X56500000Y-120000000D03*
%TD*%
D17*
%TO.P,J6,1,Pin_1_1*%
%TO.N,Net-(J1-Pin_1)*%
X70500000Y-119500000D03*
D18*
%TO.P,J6,2,Pin_2_2*%
%TO.N,Net-(J5-Pin_3)*%
X73000000Y-119500000D03*
%TO.P,J6,3,Pin_3_3*%
%TO.N,Net-(J6-Pin_3)*%
X75500000Y-119500000D03*
%TO.P,J6,4,Pin_4_4*%
%TO.N,Net-(J6-Pin_4)*%
X78000000Y-119500000D03*
%TO.P,J6,5,Pin_5_5*%
%TO.N,Net-(J6-Pin_5)*%
X80500000Y-119500000D03*
%TO.P,J6,6,Pin_6_6*%
%TO.N,Net-(J6-Pin_6)*%
X83000000Y-119500000D03*
%TO.P,J6,7,Pin_7_7*%
%TO.N,Net-(J6-Pin_7)*%
X85500000Y-119500000D03*
%TD*%
D11*
%TO.P,J2,1,Pin_1_1*%
%TO.N,Net-(J1-Pin_1)*%
X91055000Y-59250000D03*
D12*
%TO.P,J2,2,Pin_2_2*%
%TO.N,Net-(J2-Pin_2)*%
X91055000Y-56750000D03*
%TO.P,J2,3,Pin_3_3*%
%TO.N,Net-(J1-Pin_3)*%
X91055000Y-54250000D03*
%TO.P,J2,4,Pin_4_4*%
%TO.N,Net-(J2-Pin_4)*%
X91055000Y-51750000D03*
%TD*%
D19*
%TO.P,U2,1,IN+_1*%
%TO.N,Net-(J5-Pin_3)*%
X44028400Y-90974600D03*
%TO.P,U2,2,IN-_2*%
%TO.N,Net-(J1-Pin_1)*%
X44028400Y-108145000D03*
%TO.P,U2,3,OUT-_3*%
X83500000Y-108145000D03*
%TO.P,U2,4,OUT+_4*%
%TO.N,Net-(J1-Pin_3)*%
X83500000Y-91000000D03*
%TD*%
D11*
%TO.P,J3,1,Pin_1_1*%
%TO.N,Net-(J1-Pin_1)*%
X91000000Y-74500000D03*
D12*
%TO.P,J3,2,Pin_2_2*%
%TO.N,Net-(J3-Pin_2)*%
X91000000Y-72000000D03*
%TO.P,J3,3,Pin_3_3*%
%TO.N,Net-(J1-Pin_3)*%
X91000000Y-69500000D03*
%TO.P,J3,4,Pin_4_4*%
%TO.N,Net-(J3-Pin_4)*%
X91000000Y-67000000D03*
%TD*%
D10*
%TO.P,Q4,1,G_1*%
%TO.N,Net-(Q4-G)*%
X81125000Y-72050000D03*
%TO.P,Q4,2,S_2*%
%TO.N,Net-(J1-Pin_1)*%
X81125000Y-73950000D03*
%TO.P,Q4,3,D_3*%
%TO.N,Net-(J4-Pin_2)*%
X83000000Y-73000000D03*
%TD*%
%TO.P,Q1,1,G_1*%
%TO.N,Net-(Q1-G)*%
X80500000Y-40500000D03*
%TO.P,Q1,2,S_2*%
%TO.N,Net-(J1-Pin_1)*%
X80500000Y-42400000D03*
%TO.P,Q1,3,D_3*%
%TO.N,Net-(J1-Pin_2)*%
X82375000Y-41450000D03*
%TD*%
D20*
%TO.N,Net-(J1-Pin_1)*%
X81000000Y-75500000D03*
X81000000Y-54000000D03*
X81000000Y-64000000D03*
X80500000Y-44000000D03*
%TD*%
%TO.N,Net-(J6-Pin_7)*%
D21*
X85500000Y-119500000D02*
X85500000Y-114500000D01*
%TO.N,Net-(J6-Pin_6)*%
X83000000Y-119500000D02*
X83000000Y-114500000D01*
%TO.N,Net-(J6-Pin_5)*%
X80500000Y-119500000D02*
X80500000Y-114500000D01*
%TO.N,Net-(J6-Pin_4)*%
X78000000Y-119500000D02*
X78000000Y-114500000D01*
%TO.N,Net-(J5-Pin_3)*%
X79000000Y-121500000D02*
X75000000Y-121500000D01*
X75000000Y-121500000D02*
X73000000Y-119500000D01*
%TO.N,Net-(J6-Pin_3)*%
X75500000Y-119500000D02*
X75500000Y-114500000D01*
%TO.N,Net-(J5-Pin_3)*%
X73000000Y-119500000D02*
X71000000Y-117500000D01*
X71000000Y-117500000D02*
X59000000Y-117500000D01*
%TO.N,Net-(J6-Pin_3)*%
D22*
X75500000Y-114500000D02*
X50580000Y-89580000D01*
%TO.N,Net-(J1-Pin_4)*%
X80170000Y-36750000D02*
X72500000Y-44420000D01*
X91055000Y-36750000D02*
X80170000Y-36750000D01*
%TO.N,Net-(J1-Pin_2)*%
X90755000Y-41450000D02*
X91055000Y-41750000D01*
X82375000Y-41450000D02*
X90755000Y-41450000D01*
%TO.N,Net-(J1-Pin_3)*%
X92000000Y-93000000D02*
X85500000Y-93000000D01*
X93000000Y-67500000D02*
X91000000Y-69500000D01*
X93000000Y-56195000D02*
X93000000Y-67500000D01*
X93000000Y-52000000D02*
X91055000Y-53945000D01*
X93000000Y-70500000D02*
X93000000Y-83000000D01*
X91000000Y-85000000D02*
X93000000Y-87000000D01*
X85500000Y-93000000D02*
X83500000Y-91000000D01*
X93000000Y-41195000D02*
X93000000Y-52000000D01*
X91055000Y-53945000D02*
X91055000Y-54250000D01*
X93000000Y-87000000D02*
X93000000Y-92000000D01*
X93000000Y-83000000D02*
X91000000Y-85000000D01*
X93000000Y-92000000D02*
X92000000Y-93000000D01*
X91055000Y-39250000D02*
X93000000Y-41195000D01*
X92000000Y-69500000D02*
X93000000Y-70500000D01*
X91055000Y-54250000D02*
X93000000Y-56195000D01*
X91000000Y-69500000D02*
X92000000Y-69500000D01*
%TO.N,Net-(J1-Pin_1)*%
X80500000Y-42400000D02*
X80500000Y-44000000D01*
X81125000Y-75375000D02*
X81000000Y-75500000D01*
X81125000Y-73950000D02*
X81125000Y-75375000D01*
X81000000Y-52450000D02*
X81000000Y-54000000D01*
X81125000Y-63875000D02*
X81000000Y-64000000D01*
X81125000Y-62450000D02*
X81125000Y-63875000D01*
%TO.N,Net-(J2-Pin_4)*%
X87805000Y-48500000D02*
X78500000Y-48500000D01*
X74960000Y-52040000D02*
X72500000Y-52040000D01*
X91055000Y-51750000D02*
X87805000Y-48500000D01*
X78500000Y-48500000D02*
X74960000Y-52040000D01*
%TO.N,Net-(J2-Pin_2)*%
X85805000Y-51500000D02*
X91055000Y-56750000D01*
X82875000Y-51500000D02*
X85805000Y-51500000D01*
%TO.N,Net-(J3-Pin_2)*%
X83000000Y-61500000D02*
X83000000Y-64000000D01*
X83000000Y-64000000D02*
X91000000Y-72000000D01*
%TO.N,Net-(J3-Pin_4)*%
X81120000Y-57120000D02*
X72500000Y-57120000D01*
X91000000Y-67000000D02*
X81120000Y-57120000D01*
%TO.N,Net-(J4-Pin_2)*%
X83000000Y-79500000D02*
X91000000Y-87500000D01*
X83000000Y-73000000D02*
X83000000Y-79500000D01*
%TO.N,Net-(J5-Pin_3)*%
X65000000Y-88500000D02*
X65000000Y-35902720D01*
X56500000Y-120000000D02*
X59000000Y-117500000D01*
X91055000Y-98500000D02*
X75000000Y-98500000D01*
X44028400Y-90974600D02*
X56500000Y-103446200D01*
X44028400Y-37471600D02*
X46000000Y-35500000D01*
X91500000Y-121500000D02*
X79000000Y-121500000D01*
X46000000Y-35500000D02*
X64597280Y-35500000D01*
X93000000Y-100445000D02*
X93000000Y-120000000D01*
X44028400Y-90974600D02*
X44028400Y-37471600D01*
X64597280Y-35500000D02*
X65000000Y-35902720D01*
X65402720Y-35500000D02*
X71260000Y-35500000D01*
X65000000Y-35902720D02*
X65402720Y-35500000D01*
X71260000Y-35500000D02*
X72500000Y-34260000D01*
X75000000Y-98500000D02*
X65000000Y-88500000D01*
X91055000Y-98500000D02*
X93000000Y-100445000D01*
X56500000Y-103446200D02*
X56500000Y-120000000D01*
X93000000Y-120000000D02*
X91500000Y-121500000D01*
%TO.N,Net-(J6-Pin_3)*%
X50580000Y-89580000D02*
X50580000Y-80920000D01*
X50580000Y-80920000D02*
X47100000Y-77440000D01*
%TO.N,Net-(J6-Pin_7)*%
X85500000Y-114500000D02*
X60500000Y-89500000D01*
X60500000Y-73060000D02*
X47100000Y-59660000D01*
X60500000Y-89500000D02*
X60500000Y-73060000D01*
%TO.N,Net-(J6-Pin_4)*%
X53100000Y-80900000D02*
X47100000Y-74900000D01*
X53100000Y-89600000D02*
X53100000Y-80900000D01*
X78000000Y-114500000D02*
X53100000Y-89600000D01*
%TO.N,Net-(J6-Pin_6)*%
X58000000Y-73100000D02*
X47100000Y-62200000D01*
X83000000Y-114500000D02*
X58000000Y-89500000D01*
X58000000Y-89500000D02*
X58000000Y-73100000D01*
%TO.N,Net-(J6-Pin_5)*%
X80500000Y-114500000D02*
X55500000Y-89500000D01*
X55500000Y-89500000D02*
X55500000Y-75680000D01*
X55500000Y-75680000D02*
X47100000Y-67280000D01*
%TO.N,Net-(Q1-G)*%
X78000000Y-43000000D02*
X78000000Y-44000000D01*
X78000000Y-44000000D02*
X72500000Y-49500000D01*
X80500000Y-40500000D02*
X78000000Y-43000000D01*
%TO.N,Net-(Q2-G)*%
X81000000Y-50550000D02*
X78950000Y-50550000D01*
X74920000Y-54580000D02*
X72500000Y-54580000D01*
X78950000Y-50550000D02*
X74920000Y-54580000D01*
%TO.N,Net-(Q3-G)*%
X80075000Y-59500000D02*
X72660000Y-59500000D01*
X72660000Y-59500000D02*
X72500000Y-59660000D01*
X81125000Y-60550000D02*
X80075000Y-59500000D01*
%TO.N,Net-(Q4-G)*%
X81125000Y-72050000D02*
X80550000Y-72050000D01*
X80550000Y-72050000D02*
X73240000Y-64740000D01*
X73240000Y-64740000D02*
X72500000Y-64740000D01*
%TO.N,Net-(J4-Pin_4)*%
X91000000Y-78000000D02*
X75200000Y-62200000D01*
X75200000Y-62200000D02*
X72500000Y-62200000D01*
X91000000Y-82500000D02*
X91000000Y-78000000D01*
%TO.N,Net-(J5-Pin_2)*%
X62500000Y-64900000D02*
X47100000Y-49500000D01*
X91055000Y-101000000D02*
X74500000Y-101000000D01*
X74500000Y-101000000D02*
X62500000Y-89000000D01*
X62500000Y-89000000D02*
X62500000Y-64900000D01*
%TD*%
M02*
