M48
; DRILL file KiCad 10.0.4 date 2026-07-16T11:03:46
; FORMAT={-:-/ absolute / metric / decimal}
; #@! TF.CreationDate,2026-07-16T11:03:46+02:00
; #@! TF.GenerationSoftware,Kicad,Pcbnew,10.0.4
; #@! TF.FileFunction,Plated,1,2,PTH
FMAT,2
METRIC
; #@! TA.AperFunction,Plated,PTH,ViaDrill
T1C0.300
; #@! TA.AperFunction,Plated,PTH,ComponentDrill
T2C0.800
; #@! TA.AperFunction,Plated,PTH,ComponentDrill
T3C0.950
; #@! TA.AperFunction,Plated,PTH,ComponentDrill
T4C1.000
; #@! TA.AperFunction,Plated,PTH,ComponentDrill
T5C1.300
%
G90
G05
T1
X80.5Y-44.0
X81.0Y-54.0
X81.0Y-64.0
X81.0Y-75.5
T2
X47.1Y-39.34
X47.1Y-41.88
X47.1Y-44.42
X47.1Y-46.96
X47.1Y-49.5
X47.1Y-52.04
X47.1Y-54.58
X47.1Y-57.12
X47.1Y-59.66
X47.1Y-62.2
X47.1Y-64.74
X47.1Y-67.28
X47.1Y-69.82
X47.1Y-72.36
X47.1Y-74.9
X47.1Y-77.44
X47.1Y-79.98
X47.104Y-34.263
X47.104Y-36.803
X72.5Y-34.26
X72.5Y-36.8
X72.5Y-39.34
X72.5Y-41.88
X72.5Y-44.42
X72.5Y-46.96
X72.5Y-49.5
X72.5Y-52.04
X72.5Y-54.58
X72.5Y-57.12
X72.5Y-59.66
X72.5Y-62.2
X72.5Y-64.74
X72.5Y-67.28
X72.5Y-69.82
X72.5Y-72.36
X72.5Y-74.9
X72.5Y-77.44
X72.5Y-79.98
T3
X70.5Y-119.5
X73.0Y-119.5
X75.5Y-119.5
X78.0Y-119.5
X80.5Y-119.5
X83.0Y-119.5
X85.5Y-119.5
X91.0Y-67.0
X91.0Y-69.5
X91.0Y-72.0
X91.0Y-74.5
X91.055Y-36.75
X91.055Y-39.25
X91.055Y-41.75
X91.055Y-44.25
X91.055Y-51.75
X91.055Y-54.25
X91.055Y-56.75
X91.055Y-59.25
X91.055Y-98.5
X91.055Y-101.0
X91.055Y-103.5
X91.15Y-82.25
X91.15Y-84.75
X91.15Y-87.25
X91.15Y-89.75
T4
X44.028Y-90.975
X44.028Y-108.145
X83.5Y-91.0
X83.5Y-108.145
T5
X51.5Y-120.0
X56.5Y-120.0
M30
