%TF.GenerationSoftware,KiCad,Pcbnew,10.0.4*%
%TF.CreationDate,2026-08-19T22:39:01+02:00*%
%TF.ProjectId,PCB,5043422e-6b69-4636-9164-5f7063625858,rev?*%
%TF.SameCoordinates,Original*%
%TF.FileFunction,Soldermask,Bot*%
%TF.FilePolarity,Negative*%
%FSLAX46Y46*%
G04 Gerber Fmt 4.6, Leading zero omitted, Abs format (unit mm)*
G04 Created by KiCad (PCBNEW 10.0.4) date 2026-08-19 22:39:01*
%MOMM*%
%LPD*%
G01*
G04 APERTURE LIST*
G04 Aperture macros list*
%AMRoundRect*
0 Rectangle with rounded corners*
0 $1 Rounding radius*
0 $2 $3 $4 $5 $6 $7 $8 $9 X,Y pos of 4 corners*
0 Add a 4 corners polygon primitive as box body*
4,1,4,$2,$3,$4,$5,$6,$7,$8,$9,$2,$3,0*
0 Add four circle primitives for the rounded corners*
1,1,$1+$1,$2,$3*
1,1,$1+$1,$4,$5*
1,1,$1+$1,$6,$7*
1,1,$1+$1,$8,$9*
0 Add four rect primitives between the rounded corners*
20,1,$1+$1,$2,$3,$4,$5,0*
20,1,$1+$1,$4,$5,$6,$7,0*
20,1,$1+$1,$6,$7,$8,$9,0*
20,1,$1+$1,$8,$9,$2,$3,0*%
G04 Aperture macros list end*
%ADD10RoundRect,0.250000X0.725000X-0.600000X0.725000X0.600000X-0.725000X0.600000X-0.725000X-0.600000X0*%
%ADD11O,1.950000X1.700000*%
%ADD12R,2.000000X1.200000*%
%ADD13O,2.000000X1.200000*%
%ADD14C,2.200000*%
%ADD15RoundRect,0.250000X-1.050000X-1.050000X1.050000X-1.050000X1.050000X1.050000X-1.050000X1.050000X0*%
%ADD16C,2.600000*%
%ADD17RoundRect,0.250000X1.050000X-1.050000X1.050000X1.050000X-1.050000X1.050000X-1.050000X-1.050000X0*%
%ADD18RoundRect,0.250000X-0.600000X-0.725000X0.600000X-0.725000X0.600000X0.725000X-0.600000X0.725000X0*%
%ADD19O,1.700000X1.950000*%
%ADD20R,1.524000X1.524000*%
%ADD21C,2.000000*%
%ADD22R,1.500000X1.500000*%
%ADD23C,1.600000*%
%ADD24R,0.700000X0.700000*%
G04 APERTURE END LIST*
D10*
%TO.C,J11*%
X91150000Y-53500000D03*
D11*
X91150000Y-51000000D03*
X91150000Y-48500000D03*
%TD*%
D12*
%TO.C,U1*%
X72500000Y-79980000D03*
D13*
X72500000Y-77440000D03*
X72500000Y-74900000D03*
X72500000Y-72360000D03*
X72500000Y-69820000D03*
X72500000Y-67280000D03*
X72500000Y-64740000D03*
X72500000Y-62200000D03*
X72500000Y-59660000D03*
X72500000Y-57120000D03*
X72500000Y-54580000D03*
X72500000Y-52040000D03*
X72500000Y-49500000D03*
X72500000Y-46960000D03*
X72500000Y-44420000D03*
X72500000Y-41880000D03*
X72500000Y-39340000D03*
X72500000Y-36800000D03*
X72500000Y-34260000D03*
X47103680Y-34262720D03*
X47103680Y-36802720D03*
X47100000Y-39340000D03*
X47100000Y-41880000D03*
X47100000Y-44420000D03*
X47100000Y-46960000D03*
X47100000Y-49500000D03*
X47100000Y-52040000D03*
X47100000Y-54580000D03*
X47100000Y-57120000D03*
X47100000Y-59660000D03*
X47100000Y-62200000D03*
X47100000Y-64740000D03*
X47100000Y-67280000D03*
X47100000Y-69820000D03*
X47100000Y-72360000D03*
X47100000Y-74900000D03*
X47100000Y-77440000D03*
X47100000Y-79980000D03*
%TD*%
D14*
%TO.C,REF\u002A\u002A*%
X41500000Y-35500000D03*
%TD*%
%TO.C,REF\u002A\u002A*%
X89000000Y-112000000D03*
%TD*%
D10*
%TO.C,J5*%
X91055000Y-103500000D03*
D11*
X91055000Y-101000000D03*
X91055000Y-98500000D03*
%TD*%
D10*
%TO.C,J12*%
X91150000Y-40500000D03*
D11*
X91150000Y-38000000D03*
X91150000Y-35500000D03*
%TD*%
D15*
%TO.C,J7*%
X51500000Y-120000000D03*
D16*
X56500000Y-120000000D03*
%TD*%
D17*
%TO.C,J8*%
X91500000Y-91500000D03*
D16*
X91500000Y-86500000D03*
%TD*%
D18*
%TO.C,J6*%
X70500000Y-119500000D03*
D19*
X73000000Y-119500000D03*
X75500000Y-119500000D03*
X78000000Y-119500000D03*
X80500000Y-119500000D03*
X83000000Y-119500000D03*
X85500000Y-119500000D03*
%TD*%
D14*
%TO.C,REF\u002A\u002A*%
X79000000Y-84500000D03*
%TD*%
%TO.C,REF\u002A\u002A*%
X42500000Y-118500000D03*
%TD*%
D20*
%TO.C,U2*%
X44028400Y-90974600D03*
X44028400Y-108145000D03*
X83500000Y-108145000D03*
X83500000Y-91000000D03*
%TD*%
D14*
%TO.C,REF\u002A\u002A*%
X77500000Y-35000000D03*
%TD*%
D10*
%TO.C,J10*%
X91150000Y-66500000D03*
D11*
X91150000Y-64000000D03*
X91150000Y-61500000D03*
%TD*%
D10*
%TO.C,J9*%
X91150000Y-79500000D03*
D11*
X91150000Y-77000000D03*
X91150000Y-74500000D03*
%TD*%
D21*
%TO.C,SW1*%
X63500000Y-47500000D03*
X57000000Y-47500000D03*
X63500000Y-52000000D03*
X57000000Y-52000000D03*
%TD*%
%TO.C,SW3*%
X63250000Y-69750000D03*
X56750000Y-69750000D03*
X63250000Y-74250000D03*
X56750000Y-74250000D03*
%TD*%
%TO.C,SW2*%
X63500000Y-57500000D03*
X57000000Y-57500000D03*
X63500000Y-62000000D03*
X57000000Y-62000000D03*
%TD*%
D22*
%TO.C,SW4*%
X53960000Y-112000000D03*
D23*
X56500000Y-112000000D03*
X51420000Y-112000000D03*
%TD*%
D24*
%TO.C,D1*%
X59000000Y-37000000D03*
X59000000Y-38100000D03*
X57170000Y-38100000D03*
X57170000Y-37000000D03*
%TD*%
M02*
